<mxfile host="app.diagrams.net" modified="2023-08-10T14:50:41.603Z" agent="Mozilla/5.0 (Windows NT 10.0; Win64; x64) AppleWebKit/537.36 (KHTML, like Gecko) Chrome/114.0.0.0 Safari/537.36" etag="qjHWiw-a_pB9X0Ew0wkj" version="21.6.6" type="github">
  <diagram id="6a731a19-8d31-9384-78a2-239565b7b9f0" name="Page-1">
    <mxGraphModel dx="2385" dy="565" grid="1" gridSize="10" guides="1" tooltips="1" connect="1" arrows="1" fold="1" page="1" pageScale="1" pageWidth="1169" pageHeight="827" background="none" math="0" shadow="0">
      <root>
        <mxCell id="0" />
        <mxCell id="1" parent="0" />
        <mxCell id="6XLFOW6tzgMGZKUMcbwn-2158" value="" style="rounded=1;whiteSpace=wrap;html=1;" vertex="1" parent="1">
          <mxGeometry x="1258.75" y="330" width="142.5" height="210" as="geometry" />
        </mxCell>
        <mxCell id="6XLFOW6tzgMGZKUMcbwn-1805" style="edgeStyle=orthogonalEdgeStyle;rounded=0;orthogonalLoop=1;jettySize=auto;html=1;exitX=1;exitY=0.5;exitDx=0;exitDy=0;" edge="1" parent="1" source="6XLFOW6tzgMGZKUMcbwn-1785" target="6XLFOW6tzgMGZKUMcbwn-1804">
          <mxGeometry relative="1" as="geometry">
            <Array as="points">
              <mxPoint x="630" y="70" />
              <mxPoint x="630" y="110" />
            </Array>
          </mxGeometry>
        </mxCell>
        <mxCell id="6XLFOW6tzgMGZKUMcbwn-1785" value="Conversación privada (Se invoca al bot)" style="rounded=1;whiteSpace=wrap;html=1;" vertex="1" parent="1">
          <mxGeometry x="190" y="40" width="130" height="60" as="geometry" />
        </mxCell>
        <mxCell id="6XLFOW6tzgMGZKUMcbwn-1795" style="edgeStyle=orthogonalEdgeStyle;rounded=0;orthogonalLoop=1;jettySize=auto;html=1;exitX=1;exitY=0.5;exitDx=0;exitDy=0;entryX=0;entryY=0.5;entryDx=0;entryDy=0;" edge="1" parent="1" source="6XLFOW6tzgMGZKUMcbwn-1786" target="6XLFOW6tzgMGZKUMcbwn-1796">
          <mxGeometry relative="1" as="geometry">
            <mxPoint x="380" y="160" as="targetPoint" />
          </mxGeometry>
        </mxCell>
        <mxCell id="6XLFOW6tzgMGZKUMcbwn-1786" value="Conversación en canal de grupo (Se inicia una nueva conversación)" style="rounded=1;whiteSpace=wrap;html=1;" vertex="1" parent="1">
          <mxGeometry x="190" y="130" width="140" height="60" as="geometry" />
        </mxCell>
        <mxCell id="6XLFOW6tzgMGZKUMcbwn-1809" style="edgeStyle=orthogonalEdgeStyle;rounded=0;orthogonalLoop=1;jettySize=auto;html=1;exitX=1;exitY=0.3333333333333333;exitDx=0;exitDy=0;exitPerimeter=0;entryX=0;entryY=0.5;entryDx=0;entryDy=0;" edge="1" parent="1" source="6XLFOW6tzgMGZKUMcbwn-1787" target="6XLFOW6tzgMGZKUMcbwn-1785">
          <mxGeometry relative="1" as="geometry" />
        </mxCell>
        <mxCell id="6XLFOW6tzgMGZKUMcbwn-1810" style="edgeStyle=orthogonalEdgeStyle;rounded=0;orthogonalLoop=1;jettySize=auto;html=1;exitX=1;exitY=0.3333333333333333;exitDx=0;exitDy=0;exitPerimeter=0;entryX=0;entryY=0.5;entryDx=0;entryDy=0;" edge="1" parent="1" source="6XLFOW6tzgMGZKUMcbwn-1787" target="6XLFOW6tzgMGZKUMcbwn-1786">
          <mxGeometry relative="1" as="geometry" />
        </mxCell>
        <mxCell id="6XLFOW6tzgMGZKUMcbwn-1787" value="Actor" style="shape=umlActor;verticalLabelPosition=bottom;verticalAlign=top;html=1;outlineConnect=0;" vertex="1" parent="1">
          <mxGeometry x="30" y="92.5" width="30" height="60" as="geometry" />
        </mxCell>
        <mxCell id="6XLFOW6tzgMGZKUMcbwn-1806" style="edgeStyle=orthogonalEdgeStyle;rounded=0;orthogonalLoop=1;jettySize=auto;html=1;exitX=1;exitY=0.5;exitDx=0;exitDy=0;entryX=0;entryY=0.5;entryDx=0;entryDy=0;" edge="1" parent="1" source="6XLFOW6tzgMGZKUMcbwn-1796" target="6XLFOW6tzgMGZKUMcbwn-1804">
          <mxGeometry relative="1" as="geometry">
            <mxPoint x="705" y="110" as="targetPoint" />
            <mxPoint x="600" y="155" as="sourcePoint" />
            <Array as="points">
              <mxPoint x="520" y="155" />
              <mxPoint x="630" y="155" />
              <mxPoint x="630" y="110" />
            </Array>
          </mxGeometry>
        </mxCell>
        <mxCell id="6XLFOW6tzgMGZKUMcbwn-1796" value="Hilos en las conversaciones" style="rounded=1;whiteSpace=wrap;html=1;" vertex="1" parent="1">
          <mxGeometry x="400" y="130" width="120" height="60" as="geometry" />
        </mxCell>
        <mxCell id="6XLFOW6tzgMGZKUMcbwn-1832" style="edgeStyle=orthogonalEdgeStyle;rounded=0;orthogonalLoop=1;jettySize=auto;html=1;exitX=0.5;exitY=1;exitDx=0;exitDy=0;entryX=0.5;entryY=0;entryDx=0;entryDy=0;" edge="1" parent="1" source="6XLFOW6tzgMGZKUMcbwn-1797" target="6XLFOW6tzgMGZKUMcbwn-1802">
          <mxGeometry relative="1" as="geometry">
            <Array as="points">
              <mxPoint x="880" y="190" />
              <mxPoint x="580" y="190" />
            </Array>
          </mxGeometry>
        </mxCell>
        <mxCell id="6XLFOW6tzgMGZKUMcbwn-1833" style="edgeStyle=orthogonalEdgeStyle;rounded=0;orthogonalLoop=1;jettySize=auto;html=1;exitX=0.5;exitY=1;exitDx=0;exitDy=0;entryX=0.5;entryY=0;entryDx=0;entryDy=0;" edge="1" parent="1" source="6XLFOW6tzgMGZKUMcbwn-1797" target="6XLFOW6tzgMGZKUMcbwn-1824">
          <mxGeometry relative="1" as="geometry">
            <Array as="points">
              <mxPoint x="880" y="190" />
              <mxPoint x="935" y="190" />
            </Array>
          </mxGeometry>
        </mxCell>
        <mxCell id="6XLFOW6tzgMGZKUMcbwn-1797" value="Frases desencadenadoras" style="rounded=1;whiteSpace=wrap;html=1;" vertex="1" parent="1">
          <mxGeometry x="820" y="85" width="120" height="60" as="geometry" />
        </mxCell>
        <mxCell id="6XLFOW6tzgMGZKUMcbwn-1800" value="&lt;font style=&quot;font-size: 6px;&quot;&gt;Probar funcionalidad en canal de grupo&lt;/font&gt;" style="shape=callout;whiteSpace=wrap;html=1;perimeter=calloutPerimeter;size=20;position=0.55;" vertex="1" parent="1">
          <mxGeometry x="280" y="105" width="110" height="35" as="geometry" />
        </mxCell>
        <mxCell id="6XLFOW6tzgMGZKUMcbwn-1866" style="edgeStyle=orthogonalEdgeStyle;rounded=0;orthogonalLoop=1;jettySize=auto;html=1;exitX=0.5;exitY=1;exitDx=0;exitDy=0;entryX=0.5;entryY=0;entryDx=0;entryDy=0;" edge="1" parent="1" source="6XLFOW6tzgMGZKUMcbwn-1802" target="6XLFOW6tzgMGZKUMcbwn-1847">
          <mxGeometry relative="1" as="geometry" />
        </mxCell>
        <mxCell id="6XLFOW6tzgMGZKUMcbwn-2140" style="edgeStyle=orthogonalEdgeStyle;rounded=0;orthogonalLoop=1;jettySize=auto;html=1;exitX=0;exitY=0.5;exitDx=0;exitDy=0;entryX=1;entryY=0.5;entryDx=0;entryDy=0;" edge="1" parent="1" source="6XLFOW6tzgMGZKUMcbwn-1802" target="6XLFOW6tzgMGZKUMcbwn-1899">
          <mxGeometry relative="1" as="geometry" />
        </mxCell>
        <mxCell id="6XLFOW6tzgMGZKUMcbwn-1802" value="Mostrar recomendaciones de frases para iniciar un flujo" style="rounded=1;whiteSpace=wrap;html=1;" vertex="1" parent="1">
          <mxGeometry x="520" y="245" width="120" height="60" as="geometry" />
        </mxCell>
        <mxCell id="6XLFOW6tzgMGZKUMcbwn-1807" style="edgeStyle=orthogonalEdgeStyle;rounded=0;orthogonalLoop=1;jettySize=auto;html=1;exitX=1;exitY=0.5;exitDx=0;exitDy=0;entryX=0;entryY=0.417;entryDx=0;entryDy=0;entryPerimeter=0;" edge="1" parent="1" source="6XLFOW6tzgMGZKUMcbwn-1804" target="6XLFOW6tzgMGZKUMcbwn-1797">
          <mxGeometry relative="1" as="geometry">
            <mxPoint x="799" y="110" as="targetPoint" />
            <Array as="points" />
          </mxGeometry>
        </mxCell>
        <mxCell id="6XLFOW6tzgMGZKUMcbwn-1804" value="Detección de texto" style="text;html=1;strokeColor=none;fillColor=none;align=center;verticalAlign=middle;whiteSpace=wrap;rounded=0;" vertex="1" parent="1">
          <mxGeometry x="720" y="95" width="60" height="30" as="geometry" />
        </mxCell>
        <mxCell id="6XLFOW6tzgMGZKUMcbwn-1845" style="edgeStyle=orthogonalEdgeStyle;rounded=0;orthogonalLoop=1;jettySize=auto;html=1;exitX=0.5;exitY=1;exitDx=0;exitDy=0;entryX=0.5;entryY=0;entryDx=0;entryDy=0;" edge="1" parent="1" source="6XLFOW6tzgMGZKUMcbwn-1808" target="6XLFOW6tzgMGZKUMcbwn-1842">
          <mxGeometry relative="1" as="geometry" />
        </mxCell>
        <mxCell id="6XLFOW6tzgMGZKUMcbwn-1808" value="Vuelve a iniciar el flujo en&amp;nbsp;&lt;br&gt;&quot;Mensaje inicial del usuario&quot;" style="rounded=1;whiteSpace=wrap;html=1;" vertex="1" parent="1">
          <mxGeometry x="1000" y="400" width="120" height="60" as="geometry" />
        </mxCell>
        <mxCell id="6XLFOW6tzgMGZKUMcbwn-1811" value="Mensaje inicial del usuario" style="rounded=1;whiteSpace=wrap;html=1;" vertex="1" parent="1">
          <mxGeometry x="560" y="80" width="120" height="60" as="geometry" />
        </mxCell>
        <mxCell id="6XLFOW6tzgMGZKUMcbwn-1816" style="edgeStyle=orthogonalEdgeStyle;rounded=0;orthogonalLoop=1;jettySize=auto;html=1;entryX=0.5;entryY=0;entryDx=0;entryDy=0;" edge="1" parent="1" target="6XLFOW6tzgMGZKUMcbwn-1808">
          <mxGeometry relative="1" as="geometry">
            <mxPoint x="1060" y="360" as="sourcePoint" />
            <Array as="points">
              <mxPoint x="1060" y="380" />
              <mxPoint x="1060" y="380" />
            </Array>
          </mxGeometry>
        </mxCell>
        <mxCell id="6XLFOW6tzgMGZKUMcbwn-1814" value="Solicitar redactar el mensaje de manera diferente" style="text;html=1;strokeColor=none;fillColor=none;align=center;verticalAlign=middle;whiteSpace=wrap;rounded=0;" vertex="1" parent="1">
          <mxGeometry x="1020" y="300" width="80" height="50" as="geometry" />
        </mxCell>
        <mxCell id="6XLFOW6tzgMGZKUMcbwn-1836" style="edgeStyle=orthogonalEdgeStyle;rounded=0;orthogonalLoop=1;jettySize=auto;html=1;exitX=1;exitY=0.5;exitDx=0;exitDy=0;" edge="1" parent="1" source="6XLFOW6tzgMGZKUMcbwn-1824" target="6XLFOW6tzgMGZKUMcbwn-1830">
          <mxGeometry relative="1" as="geometry" />
        </mxCell>
        <mxCell id="6XLFOW6tzgMGZKUMcbwn-1838" style="edgeStyle=orthogonalEdgeStyle;rounded=0;orthogonalLoop=1;jettySize=auto;html=1;exitX=0;exitY=0.5;exitDx=0;exitDy=0;" edge="1" parent="1" source="6XLFOW6tzgMGZKUMcbwn-1824" target="6XLFOW6tzgMGZKUMcbwn-1825">
          <mxGeometry relative="1" as="geometry" />
        </mxCell>
        <mxCell id="6XLFOW6tzgMGZKUMcbwn-1824" value="¿Contiene frase desencadenadora?" style="text;html=1;strokeColor=none;fillColor=none;align=center;verticalAlign=middle;whiteSpace=wrap;rounded=0;" vertex="1" parent="1">
          <mxGeometry x="870" y="210" width="130" height="30" as="geometry" />
        </mxCell>
        <mxCell id="6XLFOW6tzgMGZKUMcbwn-1851" style="edgeStyle=orthogonalEdgeStyle;rounded=0;orthogonalLoop=1;jettySize=auto;html=1;exitX=0.5;exitY=1;exitDx=0;exitDy=0;" edge="1" parent="1" source="6XLFOW6tzgMGZKUMcbwn-1825" target="6XLFOW6tzgMGZKUMcbwn-1840">
          <mxGeometry relative="1" as="geometry" />
        </mxCell>
        <mxCell id="6XLFOW6tzgMGZKUMcbwn-1825" value="Si" style="text;html=1;strokeColor=none;fillColor=none;align=center;verticalAlign=middle;whiteSpace=wrap;rounded=0;" vertex="1" parent="1">
          <mxGeometry x="800" y="215" width="30" height="20" as="geometry" />
        </mxCell>
        <mxCell id="6XLFOW6tzgMGZKUMcbwn-1873" style="edgeStyle=orthogonalEdgeStyle;rounded=0;orthogonalLoop=1;jettySize=auto;html=1;exitX=0.5;exitY=1;exitDx=0;exitDy=0;entryX=0.5;entryY=0;entryDx=0;entryDy=0;" edge="1" parent="1" source="6XLFOW6tzgMGZKUMcbwn-1826" target="6XLFOW6tzgMGZKUMcbwn-1868">
          <mxGeometry relative="1" as="geometry" />
        </mxCell>
        <mxCell id="6XLFOW6tzgMGZKUMcbwn-1826" value="Inicializar flujo de la frase desencadenadora" style="rounded=1;whiteSpace=wrap;html=1;" vertex="1" parent="1">
          <mxGeometry x="797.5" y="435" width="120" height="60" as="geometry" />
        </mxCell>
        <mxCell id="6XLFOW6tzgMGZKUMcbwn-1835" style="edgeStyle=orthogonalEdgeStyle;rounded=0;orthogonalLoop=1;jettySize=auto;html=1;exitX=0.5;exitY=1;exitDx=0;exitDy=0;" edge="1" parent="1" source="6XLFOW6tzgMGZKUMcbwn-1830">
          <mxGeometry relative="1" as="geometry">
            <mxPoint x="1059.857142857143" y="290" as="targetPoint" />
          </mxGeometry>
        </mxCell>
        <mxCell id="6XLFOW6tzgMGZKUMcbwn-1830" value="No" style="text;html=1;strokeColor=none;fillColor=none;align=center;verticalAlign=middle;whiteSpace=wrap;rounded=0;" vertex="1" parent="1">
          <mxGeometry x="1045" y="215" width="30" height="20" as="geometry" />
        </mxCell>
        <mxCell id="6XLFOW6tzgMGZKUMcbwn-1875" style="edgeStyle=orthogonalEdgeStyle;rounded=0;orthogonalLoop=1;jettySize=auto;html=1;exitX=0;exitY=0.5;exitDx=0;exitDy=0;entryX=0.5;entryY=0;entryDx=0;entryDy=0;" edge="1" parent="1" source="6XLFOW6tzgMGZKUMcbwn-1840" target="6XLFOW6tzgMGZKUMcbwn-1854">
          <mxGeometry relative="1" as="geometry" />
        </mxCell>
        <mxCell id="6XLFOW6tzgMGZKUMcbwn-1840" value="Buscar flujo" style="text;html=1;strokeColor=none;fillColor=none;align=center;verticalAlign=middle;whiteSpace=wrap;rounded=0;" vertex="1" parent="1">
          <mxGeometry x="797.5" y="260" width="35" height="30" as="geometry" />
        </mxCell>
        <mxCell id="6XLFOW6tzgMGZKUMcbwn-1842" value="" style="ellipse;whiteSpace=wrap;html=1;aspect=fixed;" vertex="1" parent="1">
          <mxGeometry x="1055" y="485" width="10" height="10" as="geometry" />
        </mxCell>
        <mxCell id="6XLFOW6tzgMGZKUMcbwn-1874" style="edgeStyle=orthogonalEdgeStyle;rounded=0;orthogonalLoop=1;jettySize=auto;html=1;exitX=0.5;exitY=1;exitDx=0;exitDy=0;entryX=0.5;entryY=0;entryDx=0;entryDy=0;" edge="1" parent="1" source="6XLFOW6tzgMGZKUMcbwn-1846" target="6XLFOW6tzgMGZKUMcbwn-1848">
          <mxGeometry relative="1" as="geometry" />
        </mxCell>
        <mxCell id="6XLFOW6tzgMGZKUMcbwn-1878" style="edgeStyle=orthogonalEdgeStyle;rounded=0;orthogonalLoop=1;jettySize=auto;html=1;exitX=1;exitY=0.5;exitDx=0;exitDy=0;entryX=0;entryY=0.5;entryDx=0;entryDy=0;" edge="1" parent="1" source="6XLFOW6tzgMGZKUMcbwn-1846" target="6XLFOW6tzgMGZKUMcbwn-1825">
          <mxGeometry relative="1" as="geometry">
            <mxPoint x="810" y="160" as="targetPoint" />
            <Array as="points">
              <mxPoint x="660" y="395" />
              <mxPoint x="660" y="225" />
            </Array>
          </mxGeometry>
        </mxCell>
        <mxCell id="6XLFOW6tzgMGZKUMcbwn-1846" value="Botón 1" style="rounded=1;whiteSpace=wrap;html=1;" vertex="1" parent="1">
          <mxGeometry x="543.75" y="380" width="72.5" height="30" as="geometry" />
        </mxCell>
        <mxCell id="6XLFOW6tzgMGZKUMcbwn-1867" style="edgeStyle=orthogonalEdgeStyle;rounded=0;orthogonalLoop=1;jettySize=auto;html=1;exitX=0.5;exitY=1;exitDx=0;exitDy=0;entryX=0.501;entryY=-0.131;entryDx=0;entryDy=0;entryPerimeter=0;" edge="1" parent="1" source="6XLFOW6tzgMGZKUMcbwn-1847" target="6XLFOW6tzgMGZKUMcbwn-1846">
          <mxGeometry relative="1" as="geometry" />
        </mxCell>
        <mxCell id="6XLFOW6tzgMGZKUMcbwn-1847" value="Botones del menú" style="text;html=1;strokeColor=none;fillColor=none;align=center;verticalAlign=middle;whiteSpace=wrap;rounded=0;" vertex="1" parent="1">
          <mxGeometry x="550" y="330" width="60" height="30" as="geometry" />
        </mxCell>
        <mxCell id="6XLFOW6tzgMGZKUMcbwn-1877" style="edgeStyle=orthogonalEdgeStyle;rounded=0;orthogonalLoop=1;jettySize=auto;html=1;exitX=1;exitY=0.5;exitDx=0;exitDy=0;entryX=0;entryY=0.5;entryDx=0;entryDy=0;" edge="1" parent="1" source="6XLFOW6tzgMGZKUMcbwn-1848" target="6XLFOW6tzgMGZKUMcbwn-1825">
          <mxGeometry relative="1" as="geometry">
            <mxPoint x="870" y="170" as="targetPoint" />
            <Array as="points">
              <mxPoint x="660" y="445" />
              <mxPoint x="660" y="225" />
            </Array>
          </mxGeometry>
        </mxCell>
        <mxCell id="6XLFOW6tzgMGZKUMcbwn-1848" value="Botón n" style="rounded=1;whiteSpace=wrap;html=1;" vertex="1" parent="1">
          <mxGeometry x="543.75" y="430" width="72.5" height="30" as="geometry" />
        </mxCell>
        <mxCell id="6XLFOW6tzgMGZKUMcbwn-1887" style="edgeStyle=orthogonalEdgeStyle;rounded=0;orthogonalLoop=1;jettySize=auto;html=1;exitX=0.5;exitY=1;exitDx=0;exitDy=0;entryX=0.5;entryY=0;entryDx=0;entryDy=0;" edge="1" parent="1" source="6XLFOW6tzgMGZKUMcbwn-1854" target="6XLFOW6tzgMGZKUMcbwn-1886">
          <mxGeometry relative="1" as="geometry" />
        </mxCell>
        <mxCell id="6XLFOW6tzgMGZKUMcbwn-1890" style="edgeStyle=orthogonalEdgeStyle;rounded=0;orthogonalLoop=1;jettySize=auto;html=1;exitX=1;exitY=0.5;exitDx=0;exitDy=0;entryX=0.5;entryY=0;entryDx=0;entryDy=0;" edge="1" parent="1" source="6XLFOW6tzgMGZKUMcbwn-1854" target="6XLFOW6tzgMGZKUMcbwn-1826">
          <mxGeometry relative="1" as="geometry" />
        </mxCell>
        <mxCell id="6XLFOW6tzgMGZKUMcbwn-1854" value="Flujos" style="ellipse;whiteSpace=wrap;html=1;" vertex="1" parent="1">
          <mxGeometry x="670" y="295" width="90" height="35" as="geometry" />
        </mxCell>
        <mxCell id="6XLFOW6tzgMGZKUMcbwn-1871" style="edgeStyle=orthogonalEdgeStyle;rounded=0;orthogonalLoop=1;jettySize=auto;html=1;exitX=1;exitY=0.5;exitDx=0;exitDy=0;entryX=0;entryY=0.5;entryDx=0;entryDy=0;" edge="1" parent="1" source="6XLFOW6tzgMGZKUMcbwn-1868" target="6XLFOW6tzgMGZKUMcbwn-1870">
          <mxGeometry relative="1" as="geometry">
            <mxPoint x="900" y="535" as="targetPoint" />
          </mxGeometry>
        </mxCell>
        <mxCell id="6XLFOW6tzgMGZKUMcbwn-1872" style="edgeStyle=orthogonalEdgeStyle;rounded=0;orthogonalLoop=1;jettySize=auto;html=1;exitX=0;exitY=0.5;exitDx=0;exitDy=0;" edge="1" parent="1" source="6XLFOW6tzgMGZKUMcbwn-1868" target="6XLFOW6tzgMGZKUMcbwn-1869">
          <mxGeometry relative="1" as="geometry" />
        </mxCell>
        <mxCell id="6XLFOW6tzgMGZKUMcbwn-1868" value="Éxito en el flujo?" style="text;html=1;strokeColor=none;fillColor=none;align=center;verticalAlign=middle;whiteSpace=wrap;rounded=0;" vertex="1" parent="1">
          <mxGeometry x="827.5" y="520" width="60" height="30" as="geometry" />
        </mxCell>
        <mxCell id="6XLFOW6tzgMGZKUMcbwn-1896" style="edgeStyle=orthogonalEdgeStyle;rounded=0;orthogonalLoop=1;jettySize=auto;html=1;exitX=0;exitY=0.5;exitDx=0;exitDy=0;entryX=0.5;entryY=1;entryDx=0;entryDy=0;" edge="1" parent="1" source="6XLFOW6tzgMGZKUMcbwn-1869" target="6XLFOW6tzgMGZKUMcbwn-1886">
          <mxGeometry relative="1" as="geometry" />
        </mxCell>
        <mxCell id="6XLFOW6tzgMGZKUMcbwn-1869" value="Si" style="text;html=1;strokeColor=none;fillColor=none;align=center;verticalAlign=middle;whiteSpace=wrap;rounded=0;" vertex="1" parent="1">
          <mxGeometry x="770" y="520" width="20" height="30" as="geometry" />
        </mxCell>
        <mxCell id="6XLFOW6tzgMGZKUMcbwn-1891" style="edgeStyle=orthogonalEdgeStyle;rounded=0;orthogonalLoop=1;jettySize=auto;html=1;entryX=-0.005;entryY=0.386;entryDx=0;entryDy=0;entryPerimeter=0;exitX=1;exitY=0.5;exitDx=0;exitDy=0;" edge="1" parent="1" source="6XLFOW6tzgMGZKUMcbwn-1870" target="6XLFOW6tzgMGZKUMcbwn-1814">
          <mxGeometry relative="1" as="geometry">
            <mxPoint x="920" y="380" as="targetPoint" />
            <mxPoint x="940" y="500" as="sourcePoint" />
            <Array as="points">
              <mxPoint x="970" y="535" />
              <mxPoint x="970" y="319" />
            </Array>
          </mxGeometry>
        </mxCell>
        <mxCell id="6XLFOW6tzgMGZKUMcbwn-1870" value="No" style="text;html=1;strokeColor=none;fillColor=none;align=center;verticalAlign=middle;whiteSpace=wrap;rounded=0;" vertex="1" parent="1">
          <mxGeometry x="910" y="520" width="20" height="30" as="geometry" />
        </mxCell>
        <mxCell id="6XLFOW6tzgMGZKUMcbwn-1879" value="&lt;font style=&quot;font-size: 8px;&quot;&gt;Envía frase desencadenadora&lt;/font&gt;" style="text;html=1;strokeColor=none;fillColor=none;align=center;verticalAlign=middle;whiteSpace=wrap;rounded=0;" vertex="1" parent="1">
          <mxGeometry x="630" y="200" width="190" height="30" as="geometry" />
        </mxCell>
        <mxCell id="6XLFOW6tzgMGZKUMcbwn-1888" style="edgeStyle=orthogonalEdgeStyle;rounded=0;orthogonalLoop=1;jettySize=auto;html=1;exitX=0.5;exitY=0;exitDx=0;exitDy=0;" edge="1" parent="1" source="6XLFOW6tzgMGZKUMcbwn-1886">
          <mxGeometry relative="1" as="geometry">
            <mxPoint x="714.6666666666667" y="330" as="targetPoint" />
          </mxGeometry>
        </mxCell>
        <mxCell id="6XLFOW6tzgMGZKUMcbwn-1893" style="edgeStyle=orthogonalEdgeStyle;rounded=0;orthogonalLoop=1;jettySize=auto;html=1;exitX=1;exitY=0.5;exitDx=0;exitDy=0;" edge="1" parent="1" source="6XLFOW6tzgMGZKUMcbwn-1886">
          <mxGeometry relative="1" as="geometry">
            <mxPoint x="770" y="417.2758620689656" as="targetPoint" />
          </mxGeometry>
        </mxCell>
        <mxCell id="6XLFOW6tzgMGZKUMcbwn-1886" value="Flujo final&lt;br&gt;(Adios)" style="rounded=0;whiteSpace=wrap;html=1;" vertex="1" parent="1">
          <mxGeometry x="676" y="400" width="78" height="35" as="geometry" />
        </mxCell>
        <mxCell id="6XLFOW6tzgMGZKUMcbwn-1889" value="" style="ellipse;whiteSpace=wrap;html=1;aspect=fixed;" vertex="1" parent="1">
          <mxGeometry x="770" y="412.5" width="10" height="10" as="geometry" />
        </mxCell>
        <mxCell id="6XLFOW6tzgMGZKUMcbwn-1895" value="Inicio" style="text;html=1;strokeColor=none;fillColor=none;align=center;verticalAlign=middle;whiteSpace=wrap;rounded=0;" vertex="1" parent="1">
          <mxGeometry x="70" y="85" width="60" height="30" as="geometry" />
        </mxCell>
        <mxCell id="6XLFOW6tzgMGZKUMcbwn-1966" style="edgeStyle=orthogonalEdgeStyle;rounded=0;orthogonalLoop=1;jettySize=auto;html=1;exitX=0.5;exitY=1;exitDx=0;exitDy=0;entryX=0.5;entryY=0;entryDx=0;entryDy=0;" edge="1" parent="1" source="6XLFOW6tzgMGZKUMcbwn-1898" target="6XLFOW6tzgMGZKUMcbwn-1900">
          <mxGeometry relative="1" as="geometry">
            <Array as="points">
              <mxPoint x="580" y="630" />
              <mxPoint x="100" y="630" />
            </Array>
          </mxGeometry>
        </mxCell>
        <mxCell id="6XLFOW6tzgMGZKUMcbwn-1967" style="edgeStyle=orthogonalEdgeStyle;rounded=0;orthogonalLoop=1;jettySize=auto;html=1;exitX=0.5;exitY=1;exitDx=0;exitDy=0;" edge="1" parent="1" source="6XLFOW6tzgMGZKUMcbwn-1898" target="6XLFOW6tzgMGZKUMcbwn-1911">
          <mxGeometry relative="1" as="geometry">
            <Array as="points">
              <mxPoint x="580" y="630" />
              <mxPoint x="363" y="630" />
            </Array>
          </mxGeometry>
        </mxCell>
        <mxCell id="6XLFOW6tzgMGZKUMcbwn-1968" style="edgeStyle=orthogonalEdgeStyle;rounded=0;orthogonalLoop=1;jettySize=auto;html=1;exitX=0.5;exitY=1;exitDx=0;exitDy=0;entryX=0.526;entryY=-0.066;entryDx=0;entryDy=0;entryPerimeter=0;" edge="1" parent="1" source="6XLFOW6tzgMGZKUMcbwn-1898" target="6XLFOW6tzgMGZKUMcbwn-1955">
          <mxGeometry relative="1" as="geometry">
            <Array as="points">
              <mxPoint x="580" y="630" />
              <mxPoint x="650" y="630" />
              <mxPoint x="650" y="668" />
            </Array>
          </mxGeometry>
        </mxCell>
        <mxCell id="6XLFOW6tzgMGZKUMcbwn-1969" style="edgeStyle=orthogonalEdgeStyle;rounded=0;orthogonalLoop=1;jettySize=auto;html=1;exitX=0.5;exitY=1;exitDx=0;exitDy=0;" edge="1" parent="1" source="6XLFOW6tzgMGZKUMcbwn-1898" target="6XLFOW6tzgMGZKUMcbwn-1934">
          <mxGeometry relative="1" as="geometry">
            <Array as="points">
              <mxPoint x="580" y="630" />
              <mxPoint x="900" y="630" />
            </Array>
          </mxGeometry>
        </mxCell>
        <mxCell id="6XLFOW6tzgMGZKUMcbwn-2018" style="edgeStyle=orthogonalEdgeStyle;rounded=0;orthogonalLoop=1;jettySize=auto;html=1;exitX=0.5;exitY=1;exitDx=0;exitDy=0;entryX=0.5;entryY=0;entryDx=0;entryDy=0;" edge="1" parent="1" source="6XLFOW6tzgMGZKUMcbwn-1898" target="6XLFOW6tzgMGZKUMcbwn-1996">
          <mxGeometry relative="1" as="geometry">
            <Array as="points">
              <mxPoint x="580" y="630" />
              <mxPoint x="1105" y="630" />
            </Array>
          </mxGeometry>
        </mxCell>
        <mxCell id="6XLFOW6tzgMGZKUMcbwn-2019" style="edgeStyle=orthogonalEdgeStyle;rounded=0;orthogonalLoop=1;jettySize=auto;html=1;exitX=0.5;exitY=1;exitDx=0;exitDy=0;entryX=0.5;entryY=0;entryDx=0;entryDy=0;" edge="1" parent="1" source="6XLFOW6tzgMGZKUMcbwn-1898" target="6XLFOW6tzgMGZKUMcbwn-1944">
          <mxGeometry relative="1" as="geometry">
            <Array as="points">
              <mxPoint x="580" y="630" />
              <mxPoint x="1290" y="630" />
            </Array>
          </mxGeometry>
        </mxCell>
        <mxCell id="6XLFOW6tzgMGZKUMcbwn-2053" style="edgeStyle=orthogonalEdgeStyle;rounded=0;orthogonalLoop=1;jettySize=auto;html=1;exitX=0.5;exitY=1;exitDx=0;exitDy=0;entryX=0.5;entryY=0;entryDx=0;entryDy=0;" edge="1" parent="1" source="6XLFOW6tzgMGZKUMcbwn-1898" target="6XLFOW6tzgMGZKUMcbwn-2052">
          <mxGeometry relative="1" as="geometry">
            <Array as="points">
              <mxPoint x="580" y="630" />
              <mxPoint x="1550" y="630" />
            </Array>
          </mxGeometry>
        </mxCell>
        <mxCell id="6XLFOW6tzgMGZKUMcbwn-2055" style="edgeStyle=orthogonalEdgeStyle;rounded=0;orthogonalLoop=1;jettySize=auto;html=1;exitX=0.5;exitY=1;exitDx=0;exitDy=0;entryX=0.5;entryY=0;entryDx=0;entryDy=0;" edge="1" parent="1" source="6XLFOW6tzgMGZKUMcbwn-1898" target="6XLFOW6tzgMGZKUMcbwn-2054">
          <mxGeometry relative="1" as="geometry">
            <Array as="points">
              <mxPoint x="580" y="630" />
              <mxPoint x="-95" y="630" />
            </Array>
          </mxGeometry>
        </mxCell>
        <mxCell id="6XLFOW6tzgMGZKUMcbwn-2089" style="edgeStyle=orthogonalEdgeStyle;rounded=0;orthogonalLoop=1;jettySize=auto;html=1;exitX=0.5;exitY=1;exitDx=0;exitDy=0;entryX=0.5;entryY=0;entryDx=0;entryDy=0;" edge="1" parent="1" source="6XLFOW6tzgMGZKUMcbwn-1898" target="6XLFOW6tzgMGZKUMcbwn-2079">
          <mxGeometry relative="1" as="geometry">
            <Array as="points">
              <mxPoint x="580" y="630" />
              <mxPoint x="1800" y="630" />
            </Array>
          </mxGeometry>
        </mxCell>
        <mxCell id="6XLFOW6tzgMGZKUMcbwn-2138" style="edgeStyle=orthogonalEdgeStyle;rounded=0;orthogonalLoop=1;jettySize=auto;html=1;exitX=0.5;exitY=1;exitDx=0;exitDy=0;entryX=0.5;entryY=0;entryDx=0;entryDy=0;" edge="1" parent="1" source="6XLFOW6tzgMGZKUMcbwn-1898" target="6XLFOW6tzgMGZKUMcbwn-2098">
          <mxGeometry relative="1" as="geometry">
            <Array as="points">
              <mxPoint x="580" y="630" />
              <mxPoint x="1990" y="630" />
            </Array>
          </mxGeometry>
        </mxCell>
        <mxCell id="6XLFOW6tzgMGZKUMcbwn-2187" style="edgeStyle=orthogonalEdgeStyle;rounded=0;orthogonalLoop=1;jettySize=auto;html=1;exitX=0.5;exitY=1;exitDx=0;exitDy=0;entryX=0.5;entryY=0;entryDx=0;entryDy=0;" edge="1" parent="1" source="6XLFOW6tzgMGZKUMcbwn-1898" target="6XLFOW6tzgMGZKUMcbwn-2177">
          <mxGeometry relative="1" as="geometry">
            <Array as="points">
              <mxPoint x="580" y="630" />
              <mxPoint x="-295" y="630" />
            </Array>
          </mxGeometry>
        </mxCell>
        <mxCell id="6XLFOW6tzgMGZKUMcbwn-1898" value="Flujos" style="ellipse;whiteSpace=wrap;html=1;" vertex="1" parent="1">
          <mxGeometry x="535" y="550" width="90" height="35" as="geometry" />
        </mxCell>
        <mxCell id="6XLFOW6tzgMGZKUMcbwn-2139" style="edgeStyle=orthogonalEdgeStyle;rounded=0;orthogonalLoop=1;jettySize=auto;html=1;exitX=1;exitY=0.5;exitDx=0;exitDy=0;entryX=0;entryY=0.5;entryDx=0;entryDy=0;" edge="1" parent="1" source="6XLFOW6tzgMGZKUMcbwn-1899" target="6XLFOW6tzgMGZKUMcbwn-1802">
          <mxGeometry relative="1" as="geometry" />
        </mxCell>
        <mxCell id="6XLFOW6tzgMGZKUMcbwn-2173" style="edgeStyle=orthogonalEdgeStyle;rounded=0;orthogonalLoop=1;jettySize=auto;html=1;exitX=0.5;exitY=1;exitDx=0;exitDy=0;entryX=0.5;entryY=0;entryDx=0;entryDy=0;" edge="1" parent="1" source="6XLFOW6tzgMGZKUMcbwn-1899" target="6XLFOW6tzgMGZKUMcbwn-2095">
          <mxGeometry relative="1" as="geometry" />
        </mxCell>
        <mxCell id="6XLFOW6tzgMGZKUMcbwn-2174" style="edgeStyle=orthogonalEdgeStyle;rounded=0;orthogonalLoop=1;jettySize=auto;html=1;exitX=0.5;exitY=1;exitDx=0;exitDy=0;entryX=0.5;entryY=0;entryDx=0;entryDy=0;" edge="1" parent="1" source="6XLFOW6tzgMGZKUMcbwn-1899" target="6XLFOW6tzgMGZKUMcbwn-2094">
          <mxGeometry relative="1" as="geometry" />
        </mxCell>
        <mxCell id="6XLFOW6tzgMGZKUMcbwn-2175" style="edgeStyle=orthogonalEdgeStyle;rounded=0;orthogonalLoop=1;jettySize=auto;html=1;exitX=0.5;exitY=1;exitDx=0;exitDy=0;entryX=0.5;entryY=0;entryDx=0;entryDy=0;" edge="1" parent="1" source="6XLFOW6tzgMGZKUMcbwn-1899" target="6XLFOW6tzgMGZKUMcbwn-2096">
          <mxGeometry relative="1" as="geometry" />
        </mxCell>
        <mxCell id="6XLFOW6tzgMGZKUMcbwn-2176" style="edgeStyle=orthogonalEdgeStyle;rounded=0;orthogonalLoop=1;jettySize=auto;html=1;exitX=0.5;exitY=1;exitDx=0;exitDy=0;entryX=0.5;entryY=0;entryDx=0;entryDy=0;" edge="1" parent="1" source="6XLFOW6tzgMGZKUMcbwn-1899" target="6XLFOW6tzgMGZKUMcbwn-2091">
          <mxGeometry relative="1" as="geometry" />
        </mxCell>
        <mxCell id="6XLFOW6tzgMGZKUMcbwn-1899" value="Botones sugerencias" style="ellipse;whiteSpace=wrap;html=1;" vertex="1" parent="1">
          <mxGeometry x="130" y="250" width="90" height="50" as="geometry" />
        </mxCell>
        <mxCell id="6XLFOW6tzgMGZKUMcbwn-1900" value="¿Qué tal?" style="rounded=0;whiteSpace=wrap;html=1;" vertex="1" parent="1">
          <mxGeometry x="70" y="670" width="60" height="30" as="geometry" />
        </mxCell>
        <mxCell id="6XLFOW6tzgMGZKUMcbwn-1911" value="Adios" style="rounded=0;whiteSpace=wrap;html=1;" vertex="1" parent="1">
          <mxGeometry x="332.5" y="670" width="60" height="30" as="geometry" />
        </mxCell>
        <mxCell id="6XLFOW6tzgMGZKUMcbwn-1989" style="edgeStyle=orthogonalEdgeStyle;rounded=0;orthogonalLoop=1;jettySize=auto;html=1;exitX=0.5;exitY=1;exitDx=0;exitDy=0;" edge="1" parent="1" source="6XLFOW6tzgMGZKUMcbwn-1931" target="6XLFOW6tzgMGZKUMcbwn-1950">
          <mxGeometry relative="1" as="geometry" />
        </mxCell>
        <mxCell id="6XLFOW6tzgMGZKUMcbwn-1931" value="&lt;div&gt;Buenas tardes&lt;/div&gt;&lt;div&gt;Buenos días&lt;/div&gt;&lt;div&gt;Hola&lt;/div&gt;&lt;div&gt;¡Hola, agente!&lt;/div&gt;&lt;div&gt;Hola, buenos días&lt;/div&gt;&lt;div&gt;Hola, ¿me puedes ayudar?&lt;/div&gt;&lt;div&gt;Hola, ¿puedes ayudarme?&lt;/div&gt;&lt;div&gt;Hola, ¿me puede ayudar?&lt;/div&gt;&lt;div&gt;Hola, ¿puede ayudarme?&lt;/div&gt;&lt;div&gt;Hola, amigo&lt;/div&gt;&lt;div&gt;Hola, buenas tardes&lt;/div&gt;&lt;div&gt;Hola, buenos días&lt;/div&gt;&lt;div&gt;Hola, ¿qué tal?&lt;/div&gt;&lt;div&gt;Hola, ¿cómo estás?&lt;/div&gt;&lt;div&gt;Hola, ¿qué tal estás?&lt;/div&gt;&lt;div&gt;Hola, ¿cómo está?&lt;/div&gt;&lt;div&gt;Hola, necesito ayuda&lt;/div&gt;&lt;div&gt;Hola, señora&lt;/div&gt;&lt;div&gt;¡Hola, amigo!&lt;/div&gt;&lt;div&gt;Hola, señor&lt;/div&gt;&lt;div&gt;Hola, soporte&lt;/div&gt;&lt;div&gt;Hola, equipo&lt;/div&gt;&lt;div&gt;Hola. ¿Cómo está?&lt;/div&gt;&lt;div&gt;Hola. ¿Qué tal?&lt;/div&gt;&lt;div&gt;Hola, agente virtual&lt;/div&gt;&lt;div&gt;¡Hola!&lt;/div&gt;&lt;div&gt;Hola, ¡buenos días! :)&lt;/div&gt;&lt;div&gt;Hola, ¡buenas tardes!&lt;/div&gt;&lt;div&gt;Hola, ¡buenas noches!&lt;/div&gt;&lt;div&gt;Hola, ¡buenos días!&lt;/div&gt;&lt;div&gt;Hola, ¿cómo estás hoy?&lt;/div&gt;&lt;div&gt;Hola, ¿cómo está hoy?&lt;/div&gt;&lt;div&gt;Hola, ¿qué tal estás hoy?&lt;/div&gt;&lt;div&gt;Hola, ¿qué tal está hoy?&lt;/div&gt;&lt;div&gt;Hola, necesito ayuda&lt;/div&gt;&lt;div&gt;¿Qué tal?&lt;/div&gt;&lt;div&gt;¡Hola!!&lt;/div&gt;&lt;div&gt;Hola :)&lt;/div&gt;&lt;div&gt;Buenos días :)&lt;/div&gt;&lt;div&gt;Hola, ¿cómo lo llevas?&lt;/div&gt;&lt;div&gt;Hola, ¿cómo lo lleva?&lt;/div&gt;&lt;div&gt;Necesito ayuda&lt;/div&gt;&lt;div&gt;¿Qué pasa?&lt;/div&gt;&lt;div&gt;Hola.&lt;/div&gt;&lt;div&gt;Hola, agente&lt;/div&gt;&lt;div&gt;Hola. ¿Puedes ayudarme?&lt;/div&gt;&lt;div&gt;Hola. ¿Puede ayudarme?&lt;/div&gt;&lt;div&gt;Hola, buenas tardes&lt;/div&gt;&lt;div&gt;Hola, buenos días&lt;/div&gt;&lt;div&gt;Hola, buenas tardes&lt;/div&gt;&lt;div&gt;Hola, cómo estás&lt;/div&gt;&lt;div&gt;Hola, ¿cómo estás?&lt;/div&gt;&lt;div&gt;Hola, espero que puedas ayudarme.&lt;/div&gt;&lt;div&gt;Hola, espero que pueda ayudarme.&lt;/div&gt;&lt;div&gt;Necesito ayuda.&lt;/div&gt;&lt;div&gt;Necesito ayuda con un tema.&lt;/div&gt;&lt;div&gt;¡Hola, soporte!&lt;/div&gt;&lt;div&gt;Hola, equipo de soporte&lt;/div&gt;&lt;div&gt;¡Saludos!&lt;/div&gt;&lt;div&gt;¡Hola, agente virtual!&lt;/div&gt;" style="rounded=0;whiteSpace=wrap;html=1;align=left;" vertex="1" parent="1">
          <mxGeometry x="15" y="709" width="170" height="900" as="geometry" />
        </mxCell>
        <mxCell id="6XLFOW6tzgMGZKUMcbwn-1986" style="edgeStyle=orthogonalEdgeStyle;rounded=0;orthogonalLoop=1;jettySize=auto;html=1;exitX=0.5;exitY=1;exitDx=0;exitDy=0;" edge="1" parent="1" source="6XLFOW6tzgMGZKUMcbwn-1932" target="6XLFOW6tzgMGZKUMcbwn-1948">
          <mxGeometry relative="1" as="geometry" />
        </mxCell>
        <mxCell id="6XLFOW6tzgMGZKUMcbwn-1932" value="&lt;div&gt;Adiós&lt;/div&gt;&lt;div&gt;Adiós, gracias de nuevo&lt;/div&gt;&lt;div&gt;Hasta pronto&lt;/div&gt;&lt;div&gt;Hasta otra&lt;/div&gt;&lt;div&gt;Adiós, hasta luego&lt;/div&gt;&lt;div&gt;A mí también me ha gustado hablar contigo.&lt;/div&gt;&lt;div&gt;A mí también me ha gustado hablar con usted.&lt;/div&gt;&lt;div&gt;¡Adiós!&lt;/div&gt;&lt;div&gt;Buen día&lt;/div&gt;&lt;div&gt;Buenas noches&lt;/div&gt;&lt;div&gt;Que tengas un día fantástico&lt;/div&gt;&lt;div&gt;Que tenga un día fantástico&lt;/div&gt;&lt;div&gt;Que tengas un buen día. Lo estás haciendo bien.&lt;/div&gt;&lt;div&gt;Que tenga un buen día. Lo está haciendo bien.&lt;/div&gt;&lt;div&gt;Que tengas un buen día&lt;/div&gt;&lt;div&gt;Que tenga un buen día&lt;/div&gt;&lt;div&gt;Que tengas un día maravilloso :)&lt;/div&gt;&lt;div&gt;Que tenga un día maravilloso :)&lt;/div&gt;&lt;div&gt;No tengo ningún problema. Adiós.&lt;/div&gt;&lt;div&gt;Haré algo después. Gracias, adiós&lt;/div&gt;&lt;div&gt;Tendré que hablar contigo más tarde.&lt;/div&gt;&lt;div&gt;Tendré que hablar con usted más tarde.&lt;/div&gt;&lt;div&gt;Un placer hablar contigo. Adiós.&lt;/div&gt;&lt;div&gt;No, gracias a ti, buenas noches&lt;/div&gt;&lt;div&gt;No, gracias a usted, buenas noches&lt;/div&gt;&lt;div&gt;No, gracias a ti, adiós&lt;/div&gt;&lt;div&gt;No, gracias a usted. Adiós&lt;/div&gt;&lt;div&gt;No, gracias a ti, ¡adiós!&lt;/div&gt;&lt;div&gt;No, gracias a ti. ¡Que tengas un buen día!&lt;/div&gt;&lt;div&gt;No, gracias a usted. ¡Que tenga un buen día!&lt;/div&gt;&lt;div&gt;No, gracias por tu ayuda, adiós.&lt;/div&gt;&lt;div&gt;No, muchas gracias. Buen día.&lt;/div&gt;&lt;div&gt;Ninguna de las anteriores. Adiós.&lt;/div&gt;&lt;div&gt;No, todo bien, gracias y adiós&lt;/div&gt;&lt;div&gt;No, gracias, que tenga un buen día&lt;/div&gt;&lt;div&gt;No, gracias, que tengas un buen día&lt;/div&gt;&lt;div&gt;No. Adiós.&lt;/div&gt;&lt;div&gt;Ahora mismo no. Gracias y que tenga un buen día.&lt;/div&gt;&lt;div&gt;Ahora mismo no. Gracias y que tengas un buen día.&lt;/div&gt;&lt;div&gt;No me ha resultado útil. Adiós.&lt;/div&gt;&lt;div&gt;Ok, gracias y que tenga un buen día&lt;/div&gt;&lt;div&gt;Ok, gracias y que tengas un buen día&lt;/div&gt;&lt;div&gt;Ok, gracias, hasta luego&lt;/div&gt;&lt;div&gt;¡Perfecto! Que tenga un buen día.&lt;/div&gt;&lt;div&gt;¡Perfecto! Que tengas un buen día&lt;/div&gt;&lt;div&gt;Lo mismo digo. Que tenga un buen día&lt;/div&gt;&lt;div&gt;Lo mismo digo. Hasta luego…&lt;/div&gt;&lt;div&gt;Hasta luego&lt;/div&gt;&lt;div&gt;¡Hasta luego!&lt;/div&gt;&lt;div&gt;Lo siento, grcs por la ayuda&lt;/div&gt;&lt;div&gt;Lo siento, me tengo que ir, que tenga un buen día&lt;/div&gt;&lt;div&gt;Lo siento, me tengo que ir, que tengas un buen día&lt;/div&gt;&lt;div&gt;Lo siento, me tengo que ir, adiós&lt;/div&gt;&lt;div&gt;Cuídate, que tengas un buen día&lt;/div&gt;&lt;div&gt;Cuídese, que tenga un buen día&lt;/div&gt;&lt;div&gt;Gracias por hablar conmigo, que tenga un buen día&lt;/div&gt;&lt;div&gt;Gracias por hablar conmigo, que tengas un buen día&lt;/div&gt;&lt;div&gt;Gracias, adiós&lt;/div&gt;&lt;div&gt;Gracias y adiós.&lt;/div&gt;&lt;div&gt;Gracias y que tenga un buen día&lt;/div&gt;&lt;div&gt;Gracias y que tengas un buen día&lt;/div&gt;&lt;div&gt;Gracias por tu ayuda&lt;/div&gt;&lt;div&gt;Gracias por su ayuda&lt;/div&gt;&lt;div&gt;Gracias por tu ayuda. ¡Adiós!&lt;/div&gt;&lt;div&gt;Gracias por su ayuda. ¡Adiós!&lt;/div&gt;&lt;div&gt;Gracias, que tenga un buen día.&lt;/div&gt;&lt;div&gt;Gracias, que tengas un buen día.&lt;/div&gt;&lt;div&gt;Gracias, lo miraré&lt;/div&gt;&lt;div&gt;Muchas gracias, adiós.&lt;/div&gt;&lt;div&gt;Muchas gracias, que tengas un buen día.&lt;/div&gt;&lt;div&gt;Muchas gracias, que tenga un buen día.&lt;/div&gt;&lt;div&gt;Gracias, hasta luego.&lt;/div&gt;&lt;div&gt;Gracias, adiós&lt;/div&gt;&lt;div&gt;Gracias, adiós.&lt;/div&gt;&lt;div&gt;Gracias por la ayuda, adiós.&lt;/div&gt;&lt;div&gt;Gracias por tu ayuda, adiós.&lt;/div&gt;&lt;div&gt;Gracias por tu ayuda. Adiós.&lt;/div&gt;&lt;div&gt;Gracias por su ayuda. Adiós.&lt;/div&gt;&lt;div&gt;Gracias por tu ayuda, que tengas un buen día.&lt;/div&gt;&lt;div&gt;Gracias, ¡hasta luego!&lt;/div&gt;&lt;div&gt;Gracias, hasta otra&lt;/div&gt;&lt;div&gt;Gracias, buenas tardes&lt;/div&gt;&lt;div&gt;Gracias. Adiós.&lt;/div&gt;&lt;div&gt;Gracias. Acabaré la conversación ahora.&lt;/div&gt;&lt;div&gt;Gracias, perfecto. Que tenga un buen día.&lt;/div&gt;&lt;div&gt;Gracias, perfecto. Que tengas un buen día&lt;/div&gt;&lt;div&gt;Grcs, adiós&lt;/div&gt;" style="rounded=0;whiteSpace=wrap;html=1;align=left;" vertex="1" parent="1">
          <mxGeometry x="215" y="709" width="295" height="1261" as="geometry" />
        </mxCell>
        <mxCell id="6XLFOW6tzgMGZKUMcbwn-1975" style="edgeStyle=orthogonalEdgeStyle;rounded=0;orthogonalLoop=1;jettySize=auto;html=1;exitX=0.5;exitY=1;exitDx=0;exitDy=0;entryX=0.5;entryY=0;entryDx=0;entryDy=0;" edge="1" parent="1" source="6XLFOW6tzgMGZKUMcbwn-1934" target="6XLFOW6tzgMGZKUMcbwn-1970">
          <mxGeometry relative="1" as="geometry" />
        </mxCell>
        <mxCell id="6XLFOW6tzgMGZKUMcbwn-1934" value="Fin de la conversación" style="rounded=0;whiteSpace=wrap;html=1;" vertex="1" parent="1">
          <mxGeometry x="850" y="670" width="105" height="30" as="geometry" />
        </mxCell>
        <mxCell id="6XLFOW6tzgMGZKUMcbwn-2013" style="edgeStyle=orthogonalEdgeStyle;rounded=0;orthogonalLoop=1;jettySize=auto;html=1;exitX=0.5;exitY=1;exitDx=0;exitDy=0;entryX=0.5;entryY=0;entryDx=0;entryDy=0;" edge="1" parent="1" source="6XLFOW6tzgMGZKUMcbwn-1937" target="6XLFOW6tzgMGZKUMcbwn-1999">
          <mxGeometry relative="1" as="geometry" />
        </mxCell>
        <mxCell id="6XLFOW6tzgMGZKUMcbwn-1937" value="Calificación por estrellas" style="rounded=0;whiteSpace=wrap;html=1;align=center;" vertex="1" parent="1">
          <mxGeometry x="1035" y="750" width="140" height="41" as="geometry" />
        </mxCell>
        <mxCell id="6XLFOW6tzgMGZKUMcbwn-1981" style="edgeStyle=orthogonalEdgeStyle;rounded=0;orthogonalLoop=1;jettySize=auto;html=1;exitX=0.5;exitY=1;exitDx=0;exitDy=0;entryX=0.5;entryY=0;entryDx=0;entryDy=0;" edge="1" parent="1" source="6XLFOW6tzgMGZKUMcbwn-1938" target="6XLFOW6tzgMGZKUMcbwn-1957">
          <mxGeometry relative="1" as="geometry" />
        </mxCell>
        <mxCell id="6XLFOW6tzgMGZKUMcbwn-2113" style="edgeStyle=orthogonalEdgeStyle;rounded=0;orthogonalLoop=1;jettySize=auto;html=1;exitX=0.5;exitY=1;exitDx=0;exitDy=0;entryX=0.5;entryY=0;entryDx=0;entryDy=0;" edge="1" parent="1" source="6XLFOW6tzgMGZKUMcbwn-1938" target="6XLFOW6tzgMGZKUMcbwn-2111">
          <mxGeometry relative="1" as="geometry">
            <Array as="points">
              <mxPoint x="646" y="1745" />
              <mxPoint x="788" y="1745" />
            </Array>
          </mxGeometry>
        </mxCell>
        <mxCell id="6XLFOW6tzgMGZKUMcbwn-1938" value="&lt;div&gt;Hablar con un agente&lt;/div&gt;&lt;div&gt;Hablar con una persona&lt;/div&gt;&lt;div&gt;Hablar con alguien&lt;/div&gt;&lt;div&gt;Llámame, por favor&lt;/div&gt;&lt;div&gt;Llamar a soporte&lt;/div&gt;&lt;div&gt;Llamar a soporte técnico&lt;/div&gt;&lt;div&gt;¿Puede llamarme un agente?&lt;/div&gt;&lt;div&gt;¿Puedo llamar?&lt;/div&gt;&lt;div&gt;¿Puede darme un número?&lt;/div&gt;&lt;div&gt;¿Puedes darme un número?&lt;/div&gt;&lt;div&gt;¿Puedo contactar con otra persona?&lt;/div&gt;&lt;div&gt;¿Puedo obtener soporte de un agente real?&lt;/div&gt;&lt;div&gt;¿Me pueden transferir a una persona?&lt;/div&gt;&lt;div&gt;¿Me pueden llamar?&lt;/div&gt;&lt;div&gt;¿Me puede llamar un representante?&lt;/div&gt;&lt;div&gt;¿Puedo programar una llamada?&lt;/div&gt;&lt;div&gt;¿Puedo hablar con un representante?&lt;/div&gt;&lt;div&gt;¿Puedo hablar con un humano?&lt;/div&gt;&lt;div&gt;¿Puedo hablar con un asistente humano?&lt;/div&gt;&lt;div&gt;¿Puede llamarme alguien?&lt;/div&gt;&lt;div&gt;Charlar con un humano&lt;/div&gt;&lt;div&gt;Charlar con un representante&lt;/div&gt;&lt;div&gt;Charlar con un agente&lt;/div&gt;&lt;div&gt;Charlar con alguien&lt;/div&gt;&lt;div&gt;Charlar con soporte&lt;/div&gt;&lt;div&gt;Conéctame con un agente por chat&lt;/div&gt;&lt;div&gt;Conécteme con un agente por chat&lt;/div&gt;&lt;div&gt;Conectarme con un agente por chat&lt;/div&gt;&lt;div&gt;Conéctame con una persona&lt;/div&gt;&lt;div&gt;Conécteme con una persona&lt;/div&gt;&lt;div&gt;Conectarme con una persona&lt;/div&gt;&lt;div&gt;Contactar con una persona&lt;/div&gt;&lt;div&gt;Contactar con un agente&lt;/div&gt;&lt;div&gt;Contactar con asistencia al cliente&lt;/div&gt;&lt;div&gt;Número de contacto&lt;/div&gt;&lt;div&gt;Contactar con alguien&lt;/div&gt;&lt;div&gt;Contactar con un humano&lt;/div&gt;&lt;div&gt;¿Me podría contactar alguien por teléfono?&lt;/div&gt;&lt;div&gt;Agente de atención al cliente&lt;/div&gt;&lt;div&gt;Representante del cliente&lt;/div&gt;&lt;div&gt;Servicio de atención al cliente&lt;/div&gt;&lt;div&gt;Se ha desconectado el chat de ayuda con una persona&lt;/div&gt;&lt;div&gt;Hola, me gustaría unirme de nuevo al chat con un experto&lt;/div&gt;&lt;div&gt;Necesito hablar con un responsable&lt;/div&gt;&lt;div&gt;Necesito atención al cliente&lt;/div&gt;&lt;div&gt;Necesito ayuda de una persona&lt;/div&gt;&lt;div&gt;Necesito un número de teléfono&lt;/div&gt;&lt;div&gt;Necesito asistencia técnica&lt;/div&gt;&lt;div&gt;Necesito soporte técnico&lt;/div&gt;&lt;div&gt;Necesito tener una sesión de chat en directo&lt;/div&gt;&lt;div&gt;Necesito volver a conectarme a un chat de soporte&lt;/div&gt;&lt;div&gt;Necesito hablar con un agente por chat&lt;/div&gt;&lt;div&gt;Necesito hablar con un especialista&lt;/div&gt;&lt;div&gt;Quiero hablar con asistencia al cliente&lt;/div&gt;&lt;div&gt;Quiero continuar con el soporte por chat&lt;/div&gt;&lt;div&gt;Quiero hablar con un consultor&lt;/div&gt;&lt;div&gt;Quiero hablar con el departamento de cumplimiento&lt;/div&gt;&lt;div&gt;Quiero hablar con un técnico por chat&lt;/div&gt;&lt;div&gt;Me gustaría hablar con un asociado&lt;/div&gt;&lt;div&gt;Me gustaría hablar con un técnico&lt;/div&gt;&lt;div&gt;Me gustaría hablar con un miembro del soporte técnico&lt;/div&gt;" style="rounded=0;whiteSpace=wrap;html=1;align=left;" vertex="1" parent="1">
          <mxGeometry x="539" y="709" width="215" height="1031" as="geometry" />
        </mxCell>
        <mxCell id="6XLFOW6tzgMGZKUMcbwn-1977" style="edgeStyle=orthogonalEdgeStyle;rounded=0;orthogonalLoop=1;jettySize=auto;html=1;exitX=0.25;exitY=1;exitDx=0;exitDy=0;entryX=0.5;entryY=0;entryDx=0;entryDy=0;" edge="1" parent="1" source="6XLFOW6tzgMGZKUMcbwn-1939" target="6XLFOW6tzgMGZKUMcbwn-1971">
          <mxGeometry relative="1" as="geometry" />
        </mxCell>
        <mxCell id="6XLFOW6tzgMGZKUMcbwn-1978" style="edgeStyle=orthogonalEdgeStyle;rounded=0;orthogonalLoop=1;jettySize=auto;html=1;exitX=0.75;exitY=1;exitDx=0;exitDy=0;entryX=0.5;entryY=0;entryDx=0;entryDy=0;" edge="1" parent="1" source="6XLFOW6tzgMGZKUMcbwn-1939" target="6XLFOW6tzgMGZKUMcbwn-1972">
          <mxGeometry relative="1" as="geometry" />
        </mxCell>
        <mxCell id="6XLFOW6tzgMGZKUMcbwn-1939" value="¿Ha respondido eso a su pregunta?" style="rounded=0;whiteSpace=wrap;html=1;align=left;" vertex="1" parent="1">
          <mxGeometry x="817.5" y="760" width="170" height="41" as="geometry" />
        </mxCell>
        <mxCell id="6XLFOW6tzgMGZKUMcbwn-2035" style="edgeStyle=orthogonalEdgeStyle;rounded=0;orthogonalLoop=1;jettySize=auto;html=1;exitX=0.5;exitY=1;exitDx=0;exitDy=0;entryX=0.5;entryY=0;entryDx=0;entryDy=0;" edge="1" parent="1" source="6XLFOW6tzgMGZKUMcbwn-1944" target="6XLFOW6tzgMGZKUMcbwn-2024">
          <mxGeometry relative="1" as="geometry" />
        </mxCell>
        <mxCell id="6XLFOW6tzgMGZKUMcbwn-1944" value="Error confirmado" style="rounded=0;whiteSpace=wrap;html=1;" vertex="1" parent="1">
          <mxGeometry x="1260" y="670" width="60" height="30" as="geometry" />
        </mxCell>
        <mxCell id="6XLFOW6tzgMGZKUMcbwn-1988" style="edgeStyle=orthogonalEdgeStyle;rounded=0;orthogonalLoop=1;jettySize=auto;html=1;exitX=0.5;exitY=1;exitDx=0;exitDy=0;entryX=0.5;entryY=0;entryDx=0;entryDy=0;" edge="1" parent="1" source="6XLFOW6tzgMGZKUMcbwn-1947" target="6XLFOW6tzgMGZKUMcbwn-1964">
          <mxGeometry relative="1" as="geometry" />
        </mxCell>
        <mxCell id="6XLFOW6tzgMGZKUMcbwn-1947" value="Gracias por hablar conmigo. ¡Adiós!" style="rounded=0;whiteSpace=wrap;html=1;" vertex="1" parent="1">
          <mxGeometry x="302.5" y="2030" width="120" height="60" as="geometry" />
        </mxCell>
        <mxCell id="6XLFOW6tzgMGZKUMcbwn-1987" style="edgeStyle=orthogonalEdgeStyle;rounded=0;orthogonalLoop=1;jettySize=auto;html=1;exitX=0.5;exitY=1;exitDx=0;exitDy=0;entryX=0.5;entryY=0;entryDx=0;entryDy=0;" edge="1" parent="1" source="6XLFOW6tzgMGZKUMcbwn-1948" target="6XLFOW6tzgMGZKUMcbwn-1947">
          <mxGeometry relative="1" as="geometry" />
        </mxCell>
        <mxCell id="6XLFOW6tzgMGZKUMcbwn-1948" value="Mensaje" style="text;html=1;strokeColor=none;fillColor=none;align=center;verticalAlign=middle;whiteSpace=wrap;rounded=0;" vertex="1" parent="1">
          <mxGeometry x="332.5" y="1990" width="60" height="10" as="geometry" />
        </mxCell>
        <mxCell id="6XLFOW6tzgMGZKUMcbwn-1991" style="edgeStyle=orthogonalEdgeStyle;rounded=0;orthogonalLoop=1;jettySize=auto;html=1;exitX=0.5;exitY=1;exitDx=0;exitDy=0;" edge="1" parent="1" source="6XLFOW6tzgMGZKUMcbwn-1949" target="6XLFOW6tzgMGZKUMcbwn-1952">
          <mxGeometry relative="1" as="geometry" />
        </mxCell>
        <mxCell id="6XLFOW6tzgMGZKUMcbwn-1949" value="¡Hola! Soy el Agente virtual de Soporte y mantenimiento de arquitectura, un asistente diseñado para brindarte información y ayudarte con tus consultas. Puedo ayudarte con preguntas relacionadas con las aplicaciones transversales que administramos, documentación y con gestión de incidentes y requerimientos." style="rounded=0;whiteSpace=wrap;html=1;" vertex="1" parent="1">
          <mxGeometry x="20" y="1670" width="160" height="200" as="geometry" />
        </mxCell>
        <mxCell id="6XLFOW6tzgMGZKUMcbwn-1990" style="edgeStyle=orthogonalEdgeStyle;rounded=0;orthogonalLoop=1;jettySize=auto;html=1;exitX=0.5;exitY=1;exitDx=0;exitDy=0;entryX=0.5;entryY=0;entryDx=0;entryDy=0;" edge="1" parent="1" source="6XLFOW6tzgMGZKUMcbwn-1950" target="6XLFOW6tzgMGZKUMcbwn-1949">
          <mxGeometry relative="1" as="geometry" />
        </mxCell>
        <mxCell id="6XLFOW6tzgMGZKUMcbwn-1950" value="Mensaje" style="text;html=1;strokeColor=none;fillColor=none;align=center;verticalAlign=middle;whiteSpace=wrap;rounded=0;" vertex="1" parent="1">
          <mxGeometry x="70" y="1630" width="60" height="20" as="geometry" />
        </mxCell>
        <mxCell id="6XLFOW6tzgMGZKUMcbwn-1993" style="edgeStyle=orthogonalEdgeStyle;rounded=0;orthogonalLoop=1;jettySize=auto;html=1;exitX=0.5;exitY=1;exitDx=0;exitDy=0;" edge="1" parent="1" source="6XLFOW6tzgMGZKUMcbwn-1951" target="6XLFOW6tzgMGZKUMcbwn-1954">
          <mxGeometry relative="1" as="geometry" />
        </mxCell>
        <mxCell id="6XLFOW6tzgMGZKUMcbwn-1951" value="Por favor selecciona una opción:" style="rounded=0;whiteSpace=wrap;html=1;" vertex="1" parent="1">
          <mxGeometry x="40" y="1930" width="120" height="60" as="geometry" />
        </mxCell>
        <mxCell id="6XLFOW6tzgMGZKUMcbwn-1992" style="edgeStyle=orthogonalEdgeStyle;rounded=0;orthogonalLoop=1;jettySize=auto;html=1;exitX=0.5;exitY=1;exitDx=0;exitDy=0;entryX=0.5;entryY=0;entryDx=0;entryDy=0;" edge="1" parent="1" source="6XLFOW6tzgMGZKUMcbwn-1952" target="6XLFOW6tzgMGZKUMcbwn-1951">
          <mxGeometry relative="1" as="geometry" />
        </mxCell>
        <mxCell id="6XLFOW6tzgMGZKUMcbwn-1952" value="Mensaje" style="text;html=1;strokeColor=none;fillColor=none;align=center;verticalAlign=middle;whiteSpace=wrap;rounded=0;" vertex="1" parent="1">
          <mxGeometry x="70" y="1890" width="60" height="20" as="geometry" />
        </mxCell>
        <mxCell id="6XLFOW6tzgMGZKUMcbwn-2205" style="edgeStyle=orthogonalEdgeStyle;rounded=0;orthogonalLoop=1;jettySize=auto;html=1;exitX=0.5;exitY=1;exitDx=0;exitDy=0;entryX=1;entryY=0.5;entryDx=0;entryDy=0;" edge="1" parent="1" source="6XLFOW6tzgMGZKUMcbwn-1953" target="6XLFOW6tzgMGZKUMcbwn-2136">
          <mxGeometry relative="1" as="geometry" />
        </mxCell>
        <mxCell id="6XLFOW6tzgMGZKUMcbwn-2206" style="edgeStyle=orthogonalEdgeStyle;rounded=0;orthogonalLoop=1;jettySize=auto;html=1;exitX=0.5;exitY=1;exitDx=0;exitDy=0;entryX=0.5;entryY=0;entryDx=0;entryDy=0;" edge="1" parent="1" source="6XLFOW6tzgMGZKUMcbwn-1953" target="6XLFOW6tzgMGZKUMcbwn-2192">
          <mxGeometry relative="1" as="geometry" />
        </mxCell>
        <mxCell id="6XLFOW6tzgMGZKUMcbwn-1953" value="Botones sugerencias" style="rounded=0;whiteSpace=wrap;html=1;shape=ellipse;perimeter=ellipsePerimeter;" vertex="1" parent="1">
          <mxGeometry x="45" y="2050" width="110" height="60" as="geometry" />
        </mxCell>
        <mxCell id="6XLFOW6tzgMGZKUMcbwn-1994" style="edgeStyle=orthogonalEdgeStyle;rounded=0;orthogonalLoop=1;jettySize=auto;html=1;exitX=0.5;exitY=1;exitDx=0;exitDy=0;entryX=0.5;entryY=0;entryDx=0;entryDy=0;" edge="1" parent="1" source="6XLFOW6tzgMGZKUMcbwn-1954" target="6XLFOW6tzgMGZKUMcbwn-1953">
          <mxGeometry relative="1" as="geometry">
            <Array as="points">
              <mxPoint x="100" y="2040" />
              <mxPoint x="100" y="2040" />
            </Array>
          </mxGeometry>
        </mxCell>
        <mxCell id="6XLFOW6tzgMGZKUMcbwn-1954" value="Mensaje" style="text;html=1;strokeColor=none;fillColor=none;align=center;verticalAlign=middle;whiteSpace=wrap;rounded=0;" vertex="1" parent="1">
          <mxGeometry x="70" y="2010" width="60" height="20" as="geometry" />
        </mxCell>
        <mxCell id="6XLFOW6tzgMGZKUMcbwn-1955" value="Remitir a un superior (Soporte)" style="rounded=0;whiteSpace=wrap;html=1;" vertex="1" parent="1">
          <mxGeometry x="564" y="670" width="165" height="30" as="geometry" />
        </mxCell>
        <mxCell id="6XLFOW6tzgMGZKUMcbwn-1983" style="edgeStyle=orthogonalEdgeStyle;rounded=0;orthogonalLoop=1;jettySize=auto;html=1;exitX=0.5;exitY=1;exitDx=0;exitDy=0;" edge="1" parent="1" source="6XLFOW6tzgMGZKUMcbwn-1956" target="6XLFOW6tzgMGZKUMcbwn-1961">
          <mxGeometry relative="1" as="geometry" />
        </mxCell>
        <mxCell id="6XLFOW6tzgMGZKUMcbwn-1956" value="Escriba su correo" style="rounded=0;whiteSpace=wrap;html=1;" vertex="1" parent="1">
          <mxGeometry x="586.5" y="1800" width="120" height="60" as="geometry" />
        </mxCell>
        <mxCell id="6XLFOW6tzgMGZKUMcbwn-1982" style="edgeStyle=orthogonalEdgeStyle;rounded=0;orthogonalLoop=1;jettySize=auto;html=1;exitX=0.5;exitY=1;exitDx=0;exitDy=0;entryX=0.5;entryY=0;entryDx=0;entryDy=0;" edge="1" parent="1" source="6XLFOW6tzgMGZKUMcbwn-1957" target="6XLFOW6tzgMGZKUMcbwn-1956">
          <mxGeometry relative="1" as="geometry" />
        </mxCell>
        <mxCell id="6XLFOW6tzgMGZKUMcbwn-1957" value="Pregunta" style="text;html=1;strokeColor=none;fillColor=none;align=center;verticalAlign=middle;whiteSpace=wrap;rounded=0;" vertex="1" parent="1">
          <mxGeometry x="616" y="1765" width="60" height="15" as="geometry" />
        </mxCell>
        <mxCell id="6XLFOW6tzgMGZKUMcbwn-2120" style="edgeStyle=orthogonalEdgeStyle;rounded=0;orthogonalLoop=1;jettySize=auto;html=1;exitX=0.5;exitY=1;exitDx=0;exitDy=0;entryX=0.5;entryY=0;entryDx=0;entryDy=0;" edge="1" parent="1" source="6XLFOW6tzgMGZKUMcbwn-1960" target="6XLFOW6tzgMGZKUMcbwn-2017">
          <mxGeometry relative="1" as="geometry" />
        </mxCell>
        <mxCell id="6XLFOW6tzgMGZKUMcbwn-1960" value="Por favor abrir el siguiente enlace para empezar una conversación con Soporte y mantenimiento de arquitectura:&lt;br&gt;&lt;br&gt;Link" style="rounded=0;whiteSpace=wrap;html=1;align=center;" vertex="1" parent="1">
          <mxGeometry x="656.5" y="2020" width="113.5" height="170" as="geometry" />
        </mxCell>
        <mxCell id="6XLFOW6tzgMGZKUMcbwn-2119" style="edgeStyle=orthogonalEdgeStyle;rounded=0;orthogonalLoop=1;jettySize=auto;html=1;exitX=0.5;exitY=1;exitDx=0;exitDy=0;entryX=0.5;entryY=0;entryDx=0;entryDy=0;" edge="1" parent="1" source="6XLFOW6tzgMGZKUMcbwn-1961" target="6XLFOW6tzgMGZKUMcbwn-1960">
          <mxGeometry relative="1" as="geometry">
            <Array as="points">
              <mxPoint x="646" y="1990" />
              <mxPoint x="713" y="1990" />
            </Array>
          </mxGeometry>
        </mxCell>
        <mxCell id="6XLFOW6tzgMGZKUMcbwn-1961" value="Mensaje" style="text;html=1;strokeColor=none;fillColor=none;align=center;verticalAlign=middle;whiteSpace=wrap;rounded=0;" vertex="1" parent="1">
          <mxGeometry x="616.5" y="1880" width="60" height="10" as="geometry" />
        </mxCell>
        <mxCell id="6XLFOW6tzgMGZKUMcbwn-1964" value="Fin del chat" style="text;html=1;strokeColor=none;fillColor=none;align=center;verticalAlign=middle;whiteSpace=wrap;rounded=0;" vertex="1" parent="1">
          <mxGeometry x="332.5" y="2120" width="60" height="30" as="geometry" />
        </mxCell>
        <mxCell id="6XLFOW6tzgMGZKUMcbwn-1976" style="edgeStyle=orthogonalEdgeStyle;rounded=0;orthogonalLoop=1;jettySize=auto;html=1;entryX=0.5;entryY=0;entryDx=0;entryDy=0;exitX=0.501;exitY=1.261;exitDx=0;exitDy=0;exitPerimeter=0;" edge="1" parent="1" source="6XLFOW6tzgMGZKUMcbwn-1970" target="6XLFOW6tzgMGZKUMcbwn-1939">
          <mxGeometry relative="1" as="geometry">
            <mxPoint x="900" y="740" as="sourcePoint" />
          </mxGeometry>
        </mxCell>
        <mxCell id="6XLFOW6tzgMGZKUMcbwn-1970" value="Pregunta" style="text;html=1;strokeColor=none;fillColor=none;align=center;verticalAlign=middle;whiteSpace=wrap;rounded=0;" vertex="1" parent="1">
          <mxGeometry x="872.5" y="720" width="60" height="10" as="geometry" />
        </mxCell>
        <mxCell id="6XLFOW6tzgMGZKUMcbwn-1979" style="edgeStyle=orthogonalEdgeStyle;rounded=0;orthogonalLoop=1;jettySize=auto;html=1;exitX=0.5;exitY=1;exitDx=0;exitDy=0;entryX=0.5;entryY=0;entryDx=0;entryDy=0;" edge="1" parent="1" source="6XLFOW6tzgMGZKUMcbwn-1971" target="6XLFOW6tzgMGZKUMcbwn-1973">
          <mxGeometry relative="1" as="geometry" />
        </mxCell>
        <mxCell id="6XLFOW6tzgMGZKUMcbwn-1971" value="True" style="text;html=1;strokeColor=none;fillColor=none;align=center;verticalAlign=middle;whiteSpace=wrap;rounded=0;" vertex="1" parent="1">
          <mxGeometry x="830" y="830" width="40" height="10" as="geometry" />
        </mxCell>
        <mxCell id="6XLFOW6tzgMGZKUMcbwn-1980" style="edgeStyle=orthogonalEdgeStyle;rounded=0;orthogonalLoop=1;jettySize=auto;html=1;exitX=0.5;exitY=1;exitDx=0;exitDy=0;entryX=0.5;entryY=0;entryDx=0;entryDy=0;" edge="1" parent="1" source="6XLFOW6tzgMGZKUMcbwn-1972" target="6XLFOW6tzgMGZKUMcbwn-1974">
          <mxGeometry relative="1" as="geometry" />
        </mxCell>
        <mxCell id="6XLFOW6tzgMGZKUMcbwn-1972" value="False" style="text;html=1;strokeColor=none;fillColor=none;align=center;verticalAlign=middle;whiteSpace=wrap;rounded=0;" vertex="1" parent="1">
          <mxGeometry x="940" y="830" width="40" height="10" as="geometry" />
        </mxCell>
        <mxCell id="6XLFOW6tzgMGZKUMcbwn-1973" value="Éxito confirmado" style="rounded=0;whiteSpace=wrap;html=1;align=center;" vertex="1" parent="1">
          <mxGeometry x="815" y="860" width="70" height="31" as="geometry" />
        </mxCell>
        <mxCell id="6XLFOW6tzgMGZKUMcbwn-1974" value="Error confirmado" style="rounded=0;whiteSpace=wrap;html=1;align=center;" vertex="1" parent="1">
          <mxGeometry x="925" y="860" width="70" height="31" as="geometry" />
        </mxCell>
        <mxCell id="6XLFOW6tzgMGZKUMcbwn-2012" style="edgeStyle=orthogonalEdgeStyle;rounded=0;orthogonalLoop=1;jettySize=auto;html=1;exitX=0.5;exitY=1;exitDx=0;exitDy=0;entryX=0.5;entryY=0;entryDx=0;entryDy=0;" edge="1" parent="1" source="6XLFOW6tzgMGZKUMcbwn-1995" target="6XLFOW6tzgMGZKUMcbwn-1937">
          <mxGeometry relative="1" as="geometry" />
        </mxCell>
        <mxCell id="6XLFOW6tzgMGZKUMcbwn-1995" value="Calificación" style="text;html=1;strokeColor=none;fillColor=none;align=center;verticalAlign=middle;whiteSpace=wrap;rounded=0;" vertex="1" parent="1">
          <mxGeometry x="1075" y="715" width="60" height="20" as="geometry" />
        </mxCell>
        <mxCell id="6XLFOW6tzgMGZKUMcbwn-2011" style="edgeStyle=orthogonalEdgeStyle;rounded=0;orthogonalLoop=1;jettySize=auto;html=1;exitX=0.5;exitY=1;exitDx=0;exitDy=0;entryX=0.5;entryY=0;entryDx=0;entryDy=0;" edge="1" parent="1" source="6XLFOW6tzgMGZKUMcbwn-1996" target="6XLFOW6tzgMGZKUMcbwn-1995">
          <mxGeometry relative="1" as="geometry" />
        </mxCell>
        <mxCell id="6XLFOW6tzgMGZKUMcbwn-1996" value="Exito confirmado" style="rounded=0;whiteSpace=wrap;html=1;" vertex="1" parent="1">
          <mxGeometry x="1067.5" y="670" width="75" height="30" as="geometry" />
        </mxCell>
        <mxCell id="6XLFOW6tzgMGZKUMcbwn-2015" style="edgeStyle=orthogonalEdgeStyle;rounded=0;orthogonalLoop=1;jettySize=auto;html=1;exitX=0.5;exitY=1;exitDx=0;exitDy=0;entryX=0.5;entryY=0;entryDx=0;entryDy=0;" edge="1" parent="1" source="6XLFOW6tzgMGZKUMcbwn-1997" target="6XLFOW6tzgMGZKUMcbwn-2000">
          <mxGeometry relative="1" as="geometry" />
        </mxCell>
        <mxCell id="6XLFOW6tzgMGZKUMcbwn-1997" value="Gracias por sus comentarios." style="rounded=0;whiteSpace=wrap;html=1;align=center;" vertex="1" parent="1">
          <mxGeometry x="1035" y="840" width="140" height="41" as="geometry" />
        </mxCell>
        <mxCell id="6XLFOW6tzgMGZKUMcbwn-2009" style="edgeStyle=orthogonalEdgeStyle;rounded=0;orthogonalLoop=1;jettySize=auto;html=1;exitX=0.25;exitY=1;exitDx=0;exitDy=0;entryX=0.5;entryY=0;entryDx=0;entryDy=0;" edge="1" parent="1" source="6XLFOW6tzgMGZKUMcbwn-1998" target="6XLFOW6tzgMGZKUMcbwn-2001">
          <mxGeometry relative="1" as="geometry">
            <Array as="points">
              <mxPoint x="1060" y="971" />
            </Array>
          </mxGeometry>
        </mxCell>
        <mxCell id="6XLFOW6tzgMGZKUMcbwn-2010" style="edgeStyle=orthogonalEdgeStyle;rounded=0;orthogonalLoop=1;jettySize=auto;html=1;exitX=0.75;exitY=1;exitDx=0;exitDy=0;entryX=0.5;entryY=0;entryDx=0;entryDy=0;" edge="1" parent="1" source="6XLFOW6tzgMGZKUMcbwn-1998" target="6XLFOW6tzgMGZKUMcbwn-2002">
          <mxGeometry relative="1" as="geometry" />
        </mxCell>
        <mxCell id="6XLFOW6tzgMGZKUMcbwn-1998" value="¿Te puedo ayudar con algo más?" style="rounded=0;whiteSpace=wrap;html=1;align=center;" vertex="1" parent="1">
          <mxGeometry x="1035" y="940" width="140" height="41" as="geometry" />
        </mxCell>
        <mxCell id="6XLFOW6tzgMGZKUMcbwn-2014" style="edgeStyle=orthogonalEdgeStyle;rounded=0;orthogonalLoop=1;jettySize=auto;html=1;exitX=0.5;exitY=1;exitDx=0;exitDy=0;entryX=0.5;entryY=0;entryDx=0;entryDy=0;" edge="1" parent="1" source="6XLFOW6tzgMGZKUMcbwn-1999" target="6XLFOW6tzgMGZKUMcbwn-1997">
          <mxGeometry relative="1" as="geometry" />
        </mxCell>
        <mxCell id="6XLFOW6tzgMGZKUMcbwn-1999" value="Mensaje" style="text;html=1;strokeColor=none;fillColor=none;align=center;verticalAlign=middle;whiteSpace=wrap;rounded=0;" vertex="1" parent="1">
          <mxGeometry x="1075" y="807" width="60" height="20" as="geometry" />
        </mxCell>
        <mxCell id="6XLFOW6tzgMGZKUMcbwn-2016" style="edgeStyle=orthogonalEdgeStyle;rounded=0;orthogonalLoop=1;jettySize=auto;html=1;exitX=0.5;exitY=1;exitDx=0;exitDy=0;entryX=0.5;entryY=0;entryDx=0;entryDy=0;" edge="1" parent="1" source="6XLFOW6tzgMGZKUMcbwn-2000" target="6XLFOW6tzgMGZKUMcbwn-1998">
          <mxGeometry relative="1" as="geometry" />
        </mxCell>
        <mxCell id="6XLFOW6tzgMGZKUMcbwn-2000" value="Pregunta" style="text;html=1;strokeColor=none;fillColor=none;align=center;verticalAlign=middle;whiteSpace=wrap;rounded=0;" vertex="1" parent="1">
          <mxGeometry x="1075" y="900" width="60" height="20" as="geometry" />
        </mxCell>
        <mxCell id="6XLFOW6tzgMGZKUMcbwn-2007" style="edgeStyle=orthogonalEdgeStyle;rounded=0;orthogonalLoop=1;jettySize=auto;html=1;exitX=0.5;exitY=1;exitDx=0;exitDy=0;entryX=0.5;entryY=0;entryDx=0;entryDy=0;" edge="1" parent="1" source="6XLFOW6tzgMGZKUMcbwn-2001" target="6XLFOW6tzgMGZKUMcbwn-2005">
          <mxGeometry relative="1" as="geometry" />
        </mxCell>
        <mxCell id="6XLFOW6tzgMGZKUMcbwn-2001" value="Si" style="text;html=1;strokeColor=none;fillColor=none;align=center;verticalAlign=middle;whiteSpace=wrap;rounded=0;" vertex="1" parent="1">
          <mxGeometry x="1030" y="1000" width="60" height="20" as="geometry" />
        </mxCell>
        <mxCell id="6XLFOW6tzgMGZKUMcbwn-2008" style="edgeStyle=orthogonalEdgeStyle;rounded=0;orthogonalLoop=1;jettySize=auto;html=1;exitX=0.5;exitY=1;exitDx=0;exitDy=0;entryX=0.5;entryY=0;entryDx=0;entryDy=0;" edge="1" parent="1" source="6XLFOW6tzgMGZKUMcbwn-2002" target="6XLFOW6tzgMGZKUMcbwn-2006">
          <mxGeometry relative="1" as="geometry">
            <Array as="points">
              <mxPoint x="1140" y="1070" />
            </Array>
          </mxGeometry>
        </mxCell>
        <mxCell id="6XLFOW6tzgMGZKUMcbwn-2002" value="No" style="text;html=1;strokeColor=none;fillColor=none;align=center;verticalAlign=middle;whiteSpace=wrap;rounded=0;" vertex="1" parent="1">
          <mxGeometry x="1110" y="1000" width="60" height="20" as="geometry" />
        </mxCell>
        <mxCell id="6XLFOW6tzgMGZKUMcbwn-2005" value="Sigue escuchando" style="rounded=0;whiteSpace=wrap;html=1;" vertex="1" parent="1">
          <mxGeometry x="1017.5" y="1040" width="85" height="40" as="geometry" />
        </mxCell>
        <mxCell id="6XLFOW6tzgMGZKUMcbwn-2006" value="Inicia flujo&lt;br&gt;&quot;Adios&quot;" style="rounded=0;whiteSpace=wrap;html=1;" vertex="1" parent="1">
          <mxGeometry x="1097.5" y="1100" width="85" height="30" as="geometry" />
        </mxCell>
        <mxCell id="6XLFOW6tzgMGZKUMcbwn-2017" value="Fin del chat" style="text;html=1;strokeColor=none;fillColor=none;align=center;verticalAlign=middle;whiteSpace=wrap;rounded=0;" vertex="1" parent="1">
          <mxGeometry x="685" y="2220" width="60" height="30" as="geometry" />
        </mxCell>
        <mxCell id="6XLFOW6tzgMGZKUMcbwn-2037" style="edgeStyle=orthogonalEdgeStyle;rounded=0;orthogonalLoop=1;jettySize=auto;html=1;exitX=0.25;exitY=1;exitDx=0;exitDy=0;entryX=0.5;entryY=0;entryDx=0;entryDy=0;" edge="1" parent="1" source="6XLFOW6tzgMGZKUMcbwn-2022" target="6XLFOW6tzgMGZKUMcbwn-2026">
          <mxGeometry relative="1" as="geometry" />
        </mxCell>
        <mxCell id="6XLFOW6tzgMGZKUMcbwn-2039" style="edgeStyle=orthogonalEdgeStyle;rounded=0;orthogonalLoop=1;jettySize=auto;html=1;exitX=0.75;exitY=1;exitDx=0;exitDy=0;entryX=0.5;entryY=0;entryDx=0;entryDy=0;" edge="1" parent="1" source="6XLFOW6tzgMGZKUMcbwn-2022" target="6XLFOW6tzgMGZKUMcbwn-2028">
          <mxGeometry relative="1" as="geometry" />
        </mxCell>
        <mxCell id="6XLFOW6tzgMGZKUMcbwn-2022" value="Siento no haberle podido ayudar mejor. ¿Le gustaría hablar con un analista o intentar decirlo de otra forma?" style="rounded=0;whiteSpace=wrap;html=1;align=center;" vertex="1" parent="1">
          <mxGeometry x="1202.5" y="760" width="170" height="80" as="geometry" />
        </mxCell>
        <mxCell id="6XLFOW6tzgMGZKUMcbwn-2023" style="edgeStyle=orthogonalEdgeStyle;rounded=0;orthogonalLoop=1;jettySize=auto;html=1;entryX=0.5;entryY=0;entryDx=0;entryDy=0;exitX=0.501;exitY=1.261;exitDx=0;exitDy=0;exitPerimeter=0;" edge="1" source="6XLFOW6tzgMGZKUMcbwn-2024" target="6XLFOW6tzgMGZKUMcbwn-2022" parent="1">
          <mxGeometry relative="1" as="geometry">
            <mxPoint x="1285" y="740" as="sourcePoint" />
          </mxGeometry>
        </mxCell>
        <mxCell id="6XLFOW6tzgMGZKUMcbwn-2024" value="Pregunta" style="text;html=1;strokeColor=none;fillColor=none;align=center;verticalAlign=middle;whiteSpace=wrap;rounded=0;" vertex="1" parent="1">
          <mxGeometry x="1257.5" y="720" width="60" height="10" as="geometry" />
        </mxCell>
        <mxCell id="6XLFOW6tzgMGZKUMcbwn-2038" style="edgeStyle=orthogonalEdgeStyle;rounded=0;orthogonalLoop=1;jettySize=auto;html=1;exitX=0.5;exitY=1;exitDx=0;exitDy=0;entryX=0.5;entryY=0;entryDx=0;entryDy=0;" edge="1" parent="1" source="6XLFOW6tzgMGZKUMcbwn-2026" target="6XLFOW6tzgMGZKUMcbwn-2029">
          <mxGeometry relative="1" as="geometry" />
        </mxCell>
        <mxCell id="6XLFOW6tzgMGZKUMcbwn-2026" value="Hablar con un analista" style="text;html=1;strokeColor=none;fillColor=none;align=center;verticalAlign=middle;whiteSpace=wrap;rounded=0;" vertex="1" parent="1">
          <mxGeometry x="1202.5" y="861" width="73.75" height="39" as="geometry" />
        </mxCell>
        <mxCell id="6XLFOW6tzgMGZKUMcbwn-2040" style="edgeStyle=orthogonalEdgeStyle;rounded=0;orthogonalLoop=1;jettySize=auto;html=1;exitX=0.5;exitY=1;exitDx=0;exitDy=0;entryX=0.5;entryY=0;entryDx=0;entryDy=0;" edge="1" parent="1" source="6XLFOW6tzgMGZKUMcbwn-2028" target="6XLFOW6tzgMGZKUMcbwn-2030">
          <mxGeometry relative="1" as="geometry" />
        </mxCell>
        <mxCell id="6XLFOW6tzgMGZKUMcbwn-2050" style="edgeStyle=orthogonalEdgeStyle;rounded=0;orthogonalLoop=1;jettySize=auto;html=1;exitX=0.5;exitY=1;exitDx=0;exitDy=0;" edge="1" parent="1" source="6XLFOW6tzgMGZKUMcbwn-2028" target="6XLFOW6tzgMGZKUMcbwn-2047">
          <mxGeometry relative="1" as="geometry">
            <Array as="points">
              <mxPoint x="1330" y="910" />
              <mxPoint x="1415" y="910" />
            </Array>
          </mxGeometry>
        </mxCell>
        <mxCell id="6XLFOW6tzgMGZKUMcbwn-2028" value="Decir de otro modo" style="text;html=1;strokeColor=none;fillColor=none;align=center;verticalAlign=middle;whiteSpace=wrap;rounded=0;" vertex="1" parent="1">
          <mxGeometry x="1300" y="863.75" width="60" height="33.5" as="geometry" />
        </mxCell>
        <mxCell id="6XLFOW6tzgMGZKUMcbwn-2029" value="Iniciar flujo&lt;br&gt;&quot;Remitir a un superior&quot;" style="rounded=0;whiteSpace=wrap;html=1;align=center;" vertex="1" parent="1">
          <mxGeometry x="1204.38" y="920" width="70" height="60" as="geometry" />
        </mxCell>
        <mxCell id="6XLFOW6tzgMGZKUMcbwn-2124" style="edgeStyle=orthogonalEdgeStyle;rounded=0;orthogonalLoop=1;jettySize=auto;html=1;exitX=0.5;exitY=1;exitDx=0;exitDy=0;entryX=0;entryY=0.5;entryDx=0;entryDy=0;" edge="1" parent="1" source="6XLFOW6tzgMGZKUMcbwn-2030" target="6XLFOW6tzgMGZKUMcbwn-2076">
          <mxGeometry relative="1" as="geometry">
            <Array as="points">
              <mxPoint x="1330" y="1040" />
              <mxPoint x="1470" y="1040" />
              <mxPoint x="1470" y="995" />
            </Array>
          </mxGeometry>
        </mxCell>
        <mxCell id="6XLFOW6tzgMGZKUMcbwn-2030" value="Iniciar flujo&lt;br&gt;&quot;OpenAI&quot;" style="rounded=0;whiteSpace=wrap;html=1;align=center;" vertex="1" parent="1">
          <mxGeometry x="1295" y="930" width="70" height="40" as="geometry" />
        </mxCell>
        <mxCell id="6XLFOW6tzgMGZKUMcbwn-2049" style="edgeStyle=orthogonalEdgeStyle;rounded=0;orthogonalLoop=1;jettySize=auto;html=1;exitX=0.5;exitY=1;exitDx=0;exitDy=0;entryX=0.5;entryY=0;entryDx=0;entryDy=0;" edge="1" parent="1" source="6XLFOW6tzgMGZKUMcbwn-2047" target="6XLFOW6tzgMGZKUMcbwn-2048">
          <mxGeometry relative="1" as="geometry" />
        </mxCell>
        <mxCell id="6XLFOW6tzgMGZKUMcbwn-2047" value="Mensaje" style="text;html=1;strokeColor=none;fillColor=none;align=center;verticalAlign=middle;whiteSpace=wrap;rounded=0;" vertex="1" parent="1">
          <mxGeometry x="1385" y="930" width="60" height="20" as="geometry" />
        </mxCell>
        <mxCell id="6XLFOW6tzgMGZKUMcbwn-2048" value="Continúe, estoy escuchando." style="rounded=0;whiteSpace=wrap;html=1;align=center;" vertex="1" parent="1">
          <mxGeometry x="1380" y="970" width="70" height="50" as="geometry" />
        </mxCell>
        <mxCell id="6XLFOW6tzgMGZKUMcbwn-2073" style="edgeStyle=orthogonalEdgeStyle;rounded=0;orthogonalLoop=1;jettySize=auto;html=1;exitX=0.5;exitY=1;exitDx=0;exitDy=0;entryX=0.5;entryY=0;entryDx=0;entryDy=0;" edge="1" parent="1" source="6XLFOW6tzgMGZKUMcbwn-2052" target="6XLFOW6tzgMGZKUMcbwn-2070">
          <mxGeometry relative="1" as="geometry" />
        </mxCell>
        <mxCell id="6XLFOW6tzgMGZKUMcbwn-2052" value="OpenAI" style="rounded=0;whiteSpace=wrap;html=1;" vertex="1" parent="1">
          <mxGeometry x="1520" y="670" width="60" height="30" as="geometry" />
        </mxCell>
        <mxCell id="6XLFOW6tzgMGZKUMcbwn-2054" value="Volver a empezar" style="rounded=0;whiteSpace=wrap;html=1;" vertex="1" parent="1">
          <mxGeometry x="-125" y="670" width="60" height="30" as="geometry" />
        </mxCell>
        <mxCell id="6XLFOW6tzgMGZKUMcbwn-2063" style="edgeStyle=orthogonalEdgeStyle;rounded=0;orthogonalLoop=1;jettySize=auto;html=1;exitX=0.5;exitY=1;exitDx=0;exitDy=0;" edge="1" parent="1" source="6XLFOW6tzgMGZKUMcbwn-2056" target="6XLFOW6tzgMGZKUMcbwn-2057">
          <mxGeometry relative="1" as="geometry" />
        </mxCell>
        <mxCell id="6XLFOW6tzgMGZKUMcbwn-2056" value="&lt;div&gt;volver a empezar&lt;/div&gt;&lt;div&gt;volver a iniciar&lt;/div&gt;&lt;div&gt;volver a comenzar&lt;/div&gt;&lt;div&gt;reiniciar&lt;/div&gt;&lt;div&gt;comencemos de nuevo&lt;/div&gt;&lt;div&gt;comenzar de nuevo&lt;/div&gt;" style="rounded=0;whiteSpace=wrap;html=1;align=left;" vertex="1" parent="1">
          <mxGeometry x="-180" y="709" width="170" height="101" as="geometry" />
        </mxCell>
        <mxCell id="6XLFOW6tzgMGZKUMcbwn-2064" style="edgeStyle=orthogonalEdgeStyle;rounded=0;orthogonalLoop=1;jettySize=auto;html=1;exitX=0.5;exitY=1;exitDx=0;exitDy=0;entryX=0.5;entryY=0;entryDx=0;entryDy=0;" edge="1" parent="1" source="6XLFOW6tzgMGZKUMcbwn-2057" target="6XLFOW6tzgMGZKUMcbwn-2058">
          <mxGeometry relative="1" as="geometry" />
        </mxCell>
        <mxCell id="6XLFOW6tzgMGZKUMcbwn-2057" value="Mensaje" style="text;html=1;strokeColor=none;fillColor=none;align=center;verticalAlign=middle;whiteSpace=wrap;rounded=0;" vertex="1" parent="1">
          <mxGeometry x="-125" y="830" width="60" height="20" as="geometry" />
        </mxCell>
        <mxCell id="6XLFOW6tzgMGZKUMcbwn-2061" style="edgeStyle=orthogonalEdgeStyle;rounded=0;orthogonalLoop=1;jettySize=auto;html=1;exitX=0.5;exitY=1;exitDx=0;exitDy=0;entryX=0.5;entryY=0;entryDx=0;entryDy=0;" edge="1" parent="1" source="6XLFOW6tzgMGZKUMcbwn-2058" target="6XLFOW6tzgMGZKUMcbwn-2060">
          <mxGeometry relative="1" as="geometry" />
        </mxCell>
        <mxCell id="6XLFOW6tzgMGZKUMcbwn-2058" value="De acuerdo, volveré a empezar." style="rounded=0;whiteSpace=wrap;html=1;" vertex="1" parent="1">
          <mxGeometry x="-175" y="870" width="160" height="36.25" as="geometry" />
        </mxCell>
        <mxCell id="6XLFOW6tzgMGZKUMcbwn-2059" value="Inicia flujo&lt;br&gt;&quot;¿Qué tal?&quot;" style="rounded=0;whiteSpace=wrap;html=1;" vertex="1" parent="1">
          <mxGeometry x="-137.5" y="970" width="85" height="30" as="geometry" />
        </mxCell>
        <mxCell id="6XLFOW6tzgMGZKUMcbwn-2062" style="edgeStyle=orthogonalEdgeStyle;rounded=0;orthogonalLoop=1;jettySize=auto;html=1;exitX=0.5;exitY=1;exitDx=0;exitDy=0;entryX=0.5;entryY=0;entryDx=0;entryDy=0;" edge="1" parent="1" source="6XLFOW6tzgMGZKUMcbwn-2060" target="6XLFOW6tzgMGZKUMcbwn-2059">
          <mxGeometry relative="1" as="geometry" />
        </mxCell>
        <mxCell id="6XLFOW6tzgMGZKUMcbwn-2060" value="Redirigir" style="text;html=1;strokeColor=none;fillColor=none;align=center;verticalAlign=middle;whiteSpace=wrap;rounded=0;" vertex="1" parent="1">
          <mxGeometry x="-125" y="930" width="60" height="20" as="geometry" />
        </mxCell>
        <mxCell id="6XLFOW6tzgMGZKUMcbwn-2074" style="edgeStyle=orthogonalEdgeStyle;rounded=0;orthogonalLoop=1;jettySize=auto;html=1;exitX=0.5;exitY=1;exitDx=0;exitDy=0;entryX=0.5;entryY=0;entryDx=0;entryDy=0;" edge="1" parent="1" source="6XLFOW6tzgMGZKUMcbwn-2068" target="6XLFOW6tzgMGZKUMcbwn-2071">
          <mxGeometry relative="1" as="geometry" />
        </mxCell>
        <mxCell id="6XLFOW6tzgMGZKUMcbwn-2068" value="¡Hola! Soy el Agente virtual Soporte Arquibot, poseo una gran base de conocimiento y estoy acá para resolver tus dudas" style="rounded=0;whiteSpace=wrap;html=1;align=center;" vertex="1" parent="1">
          <mxGeometry x="1480" y="769" width="140" height="81" as="geometry" />
        </mxCell>
        <mxCell id="6XLFOW6tzgMGZKUMcbwn-2069" style="edgeStyle=orthogonalEdgeStyle;rounded=0;orthogonalLoop=1;jettySize=auto;html=1;exitX=0.5;exitY=1;exitDx=0;exitDy=0;entryX=0.5;entryY=0;entryDx=0;entryDy=0;" edge="1" source="6XLFOW6tzgMGZKUMcbwn-2070" target="6XLFOW6tzgMGZKUMcbwn-2068" parent="1">
          <mxGeometry relative="1" as="geometry" />
        </mxCell>
        <mxCell id="6XLFOW6tzgMGZKUMcbwn-2070" value="Mensaje" style="text;html=1;strokeColor=none;fillColor=none;align=center;verticalAlign=middle;whiteSpace=wrap;rounded=0;" vertex="1" parent="1">
          <mxGeometry x="1520" y="720" width="60" height="20" as="geometry" />
        </mxCell>
        <mxCell id="6XLFOW6tzgMGZKUMcbwn-2075" style="edgeStyle=orthogonalEdgeStyle;rounded=0;orthogonalLoop=1;jettySize=auto;html=1;exitX=0.5;exitY=1;exitDx=0;exitDy=0;entryX=0.5;entryY=0;entryDx=0;entryDy=0;" edge="1" parent="1" source="6XLFOW6tzgMGZKUMcbwn-2071" target="6XLFOW6tzgMGZKUMcbwn-2072">
          <mxGeometry relative="1" as="geometry" />
        </mxCell>
        <mxCell id="6XLFOW6tzgMGZKUMcbwn-2071" value="Mensaje" style="text;html=1;strokeColor=none;fillColor=none;align=center;verticalAlign=middle;whiteSpace=wrap;rounded=0;" vertex="1" parent="1">
          <mxGeometry x="1520" y="870" width="60" height="20" as="geometry" />
        </mxCell>
        <mxCell id="6XLFOW6tzgMGZKUMcbwn-2077" style="edgeStyle=orthogonalEdgeStyle;rounded=0;orthogonalLoop=1;jettySize=auto;html=1;exitX=0.5;exitY=1;exitDx=0;exitDy=0;entryX=0.5;entryY=0;entryDx=0;entryDy=0;" edge="1" parent="1" source="6XLFOW6tzgMGZKUMcbwn-2072" target="6XLFOW6tzgMGZKUMcbwn-2076">
          <mxGeometry relative="1" as="geometry" />
        </mxCell>
        <mxCell id="6XLFOW6tzgMGZKUMcbwn-2072" value="En qué podría ayudarte?" style="rounded=0;whiteSpace=wrap;html=1;align=center;" vertex="1" parent="1">
          <mxGeometry x="1480" y="909" width="140" height="31" as="geometry" />
        </mxCell>
        <mxCell id="6XLFOW6tzgMGZKUMcbwn-2142" style="edgeStyle=orthogonalEdgeStyle;rounded=0;orthogonalLoop=1;jettySize=auto;html=1;exitX=0.5;exitY=1;exitDx=0;exitDy=0;" edge="1" parent="1" source="6XLFOW6tzgMGZKUMcbwn-2076">
          <mxGeometry relative="1" as="geometry">
            <mxPoint x="1549.7777777777778" y="1040" as="targetPoint" />
          </mxGeometry>
        </mxCell>
        <mxCell id="6XLFOW6tzgMGZKUMcbwn-2076" value="FlujoOpenAI" style="whiteSpace=wrap;html=1;shape=parallelogram;perimeter=parallelogramPerimeter;fixedSize=1;" vertex="1" parent="1">
          <mxGeometry x="1490" y="980" width="120" height="20" as="geometry" />
        </mxCell>
        <mxCell id="6XLFOW6tzgMGZKUMcbwn-2078" style="edgeStyle=orthogonalEdgeStyle;rounded=0;orthogonalLoop=1;jettySize=auto;html=1;exitX=0.5;exitY=1;exitDx=0;exitDy=0;entryX=0.5;entryY=0;entryDx=0;entryDy=0;" edge="1" source="6XLFOW6tzgMGZKUMcbwn-2079" parent="1">
          <mxGeometry relative="1" as="geometry">
            <mxPoint x="1800" y="720" as="targetPoint" />
          </mxGeometry>
        </mxCell>
        <mxCell id="6XLFOW6tzgMGZKUMcbwn-2079" value="Soporte" style="rounded=0;whiteSpace=wrap;html=1;" vertex="1" parent="1">
          <mxGeometry x="1770" y="670" width="60" height="30" as="geometry" />
        </mxCell>
        <mxCell id="6XLFOW6tzgMGZKUMcbwn-2080" style="edgeStyle=orthogonalEdgeStyle;rounded=0;orthogonalLoop=1;jettySize=auto;html=1;exitX=0.5;exitY=1;exitDx=0;exitDy=0;entryX=0.5;entryY=0;entryDx=0;entryDy=0;" edge="1" source="6XLFOW6tzgMGZKUMcbwn-2081" target="6XLFOW6tzgMGZKUMcbwn-2085" parent="1">
          <mxGeometry relative="1" as="geometry" />
        </mxCell>
        <mxCell id="6XLFOW6tzgMGZKUMcbwn-2081" value="Buscar palabras desencadenadoras" style="rounded=0;whiteSpace=wrap;html=1;align=center;" vertex="1" parent="1">
          <mxGeometry x="1730" y="720" width="140" height="81" as="geometry" />
        </mxCell>
        <mxCell id="6XLFOW6tzgMGZKUMcbwn-2084" style="edgeStyle=orthogonalEdgeStyle;rounded=0;orthogonalLoop=1;jettySize=auto;html=1;exitX=0.5;exitY=1;exitDx=0;exitDy=0;entryX=0.5;entryY=0;entryDx=0;entryDy=0;" edge="1" source="6XLFOW6tzgMGZKUMcbwn-2085" target="6XLFOW6tzgMGZKUMcbwn-2087" parent="1">
          <mxGeometry relative="1" as="geometry" />
        </mxCell>
        <mxCell id="6XLFOW6tzgMGZKUMcbwn-2085" value="Mensaje/Acción" style="text;html=1;strokeColor=none;fillColor=none;align=center;verticalAlign=middle;whiteSpace=wrap;rounded=0;" vertex="1" parent="1">
          <mxGeometry x="1770" y="841" width="60" height="20" as="geometry" />
        </mxCell>
        <mxCell id="6XLFOW6tzgMGZKUMcbwn-2086" style="edgeStyle=orthogonalEdgeStyle;rounded=0;orthogonalLoop=1;jettySize=auto;html=1;exitX=0.5;exitY=1;exitDx=0;exitDy=0;entryX=0.5;entryY=0;entryDx=0;entryDy=0;" edge="1" source="6XLFOW6tzgMGZKUMcbwn-2087" target="6XLFOW6tzgMGZKUMcbwn-2088" parent="1">
          <mxGeometry relative="1" as="geometry" />
        </mxCell>
        <mxCell id="6XLFOW6tzgMGZKUMcbwn-2087" value="" style="rounded=0;whiteSpace=wrap;html=1;align=center;" vertex="1" parent="1">
          <mxGeometry x="1730" y="909" width="140" height="31" as="geometry" />
        </mxCell>
        <mxCell id="6XLFOW6tzgMGZKUMcbwn-2088" value="" style="ellipse;whiteSpace=wrap;html=1;" vertex="1" parent="1">
          <mxGeometry x="1760" y="980" width="80" height="30" as="geometry" />
        </mxCell>
        <mxCell id="6XLFOW6tzgMGZKUMcbwn-2172" style="edgeStyle=orthogonalEdgeStyle;rounded=0;orthogonalLoop=1;jettySize=auto;html=1;exitX=0.5;exitY=1;exitDx=0;exitDy=0;entryX=0.5;entryY=0;entryDx=0;entryDy=0;" edge="1" parent="1" source="6XLFOW6tzgMGZKUMcbwn-2091" target="6XLFOW6tzgMGZKUMcbwn-2166">
          <mxGeometry relative="1" as="geometry" />
        </mxCell>
        <mxCell id="6XLFOW6tzgMGZKUMcbwn-2091" value="Herramientas disponibles" style="shape=parallelogram;perimeter=parallelogramPerimeter;whiteSpace=wrap;html=1;fixedSize=1;" vertex="1" parent="1">
          <mxGeometry x="340" y="350" width="180" height="20" as="geometry" />
        </mxCell>
        <mxCell id="6XLFOW6tzgMGZKUMcbwn-2170" style="edgeStyle=orthogonalEdgeStyle;rounded=0;orthogonalLoop=1;jettySize=auto;html=1;exitX=0.5;exitY=1;exitDx=0;exitDy=0;entryX=0.5;entryY=0;entryDx=0;entryDy=0;" edge="1" parent="1" source="6XLFOW6tzgMGZKUMcbwn-2094" target="6XLFOW6tzgMGZKUMcbwn-2164">
          <mxGeometry relative="1" as="geometry" />
        </mxCell>
        <mxCell id="6XLFOW6tzgMGZKUMcbwn-2094" value="Reportar un problema" style="shape=parallelogram;perimeter=parallelogramPerimeter;whiteSpace=wrap;html=1;fixedSize=1;" vertex="1" parent="1">
          <mxGeometry x="30" y="350" width="170" height="20" as="geometry" />
        </mxCell>
        <mxCell id="6XLFOW6tzgMGZKUMcbwn-2169" style="edgeStyle=orthogonalEdgeStyle;rounded=0;orthogonalLoop=1;jettySize=auto;html=1;exitX=0.5;exitY=1;exitDx=0;exitDy=0;entryX=0.5;entryY=0;entryDx=0;entryDy=0;" edge="1" parent="1" source="6XLFOW6tzgMGZKUMcbwn-2095" target="6XLFOW6tzgMGZKUMcbwn-2163">
          <mxGeometry relative="1" as="geometry" />
        </mxCell>
        <mxCell id="6XLFOW6tzgMGZKUMcbwn-2095" value="Hacer una pregunta (IA)" style="shape=parallelogram;perimeter=parallelogramPerimeter;whiteSpace=wrap;html=1;fixedSize=1;" vertex="1" parent="1">
          <mxGeometry x="-135" y="350" width="165" height="20" as="geometry" />
        </mxCell>
        <mxCell id="6XLFOW6tzgMGZKUMcbwn-2171" style="edgeStyle=orthogonalEdgeStyle;rounded=0;orthogonalLoop=1;jettySize=auto;html=1;exitX=0.5;exitY=1;exitDx=0;exitDy=0;entryX=0.5;entryY=0;entryDx=0;entryDy=0;" edge="1" parent="1" source="6XLFOW6tzgMGZKUMcbwn-2096" target="6XLFOW6tzgMGZKUMcbwn-2165">
          <mxGeometry relative="1" as="geometry">
            <Array as="points">
              <mxPoint x="270" y="390" />
              <mxPoint x="270" y="390" />
            </Array>
          </mxGeometry>
        </mxCell>
        <mxCell id="6XLFOW6tzgMGZKUMcbwn-2096" value="Documentación" style="shape=parallelogram;perimeter=parallelogramPerimeter;whiteSpace=wrap;html=1;fixedSize=1;" vertex="1" parent="1">
          <mxGeometry x="200" y="350" width="140" height="20" as="geometry" />
        </mxCell>
        <mxCell id="6XLFOW6tzgMGZKUMcbwn-2097" style="edgeStyle=orthogonalEdgeStyle;rounded=0;orthogonalLoop=1;jettySize=auto;html=1;exitX=0.5;exitY=1;exitDx=0;exitDy=0;entryX=0.5;entryY=0;entryDx=0;entryDy=0;" edge="1" source="6XLFOW6tzgMGZKUMcbwn-2098" parent="1">
          <mxGeometry relative="1" as="geometry">
            <mxPoint x="1990" y="720" as="targetPoint" />
          </mxGeometry>
        </mxCell>
        <mxCell id="6XLFOW6tzgMGZKUMcbwn-2098" value="Documentación" style="rounded=0;whiteSpace=wrap;html=1;" vertex="1" parent="1">
          <mxGeometry x="1930" y="670" width="120" height="30" as="geometry" />
        </mxCell>
        <mxCell id="6XLFOW6tzgMGZKUMcbwn-2099" style="edgeStyle=orthogonalEdgeStyle;rounded=0;orthogonalLoop=1;jettySize=auto;html=1;exitX=0.5;exitY=1;exitDx=0;exitDy=0;entryX=0.5;entryY=0;entryDx=0;entryDy=0;" edge="1" source="6XLFOW6tzgMGZKUMcbwn-2100" target="6XLFOW6tzgMGZKUMcbwn-2102" parent="1">
          <mxGeometry relative="1" as="geometry" />
        </mxCell>
        <mxCell id="6XLFOW6tzgMGZKUMcbwn-2100" value="Buscar palabras desencadenadoras" style="rounded=0;whiteSpace=wrap;html=1;align=center;" vertex="1" parent="1">
          <mxGeometry x="1920" y="720" width="140" height="81" as="geometry" />
        </mxCell>
        <mxCell id="6XLFOW6tzgMGZKUMcbwn-2101" style="edgeStyle=orthogonalEdgeStyle;rounded=0;orthogonalLoop=1;jettySize=auto;html=1;exitX=0.5;exitY=1;exitDx=0;exitDy=0;entryX=0.5;entryY=0;entryDx=0;entryDy=0;" edge="1" source="6XLFOW6tzgMGZKUMcbwn-2102" target="6XLFOW6tzgMGZKUMcbwn-2104" parent="1">
          <mxGeometry relative="1" as="geometry" />
        </mxCell>
        <mxCell id="6XLFOW6tzgMGZKUMcbwn-2102" value="Mensaje/Acción" style="text;html=1;strokeColor=none;fillColor=none;align=center;verticalAlign=middle;whiteSpace=wrap;rounded=0;" vertex="1" parent="1">
          <mxGeometry x="1960" y="841" width="60" height="20" as="geometry" />
        </mxCell>
        <mxCell id="6XLFOW6tzgMGZKUMcbwn-2103" style="edgeStyle=orthogonalEdgeStyle;rounded=0;orthogonalLoop=1;jettySize=auto;html=1;exitX=0.5;exitY=1;exitDx=0;exitDy=0;entryX=0.5;entryY=0;entryDx=0;entryDy=0;" edge="1" source="6XLFOW6tzgMGZKUMcbwn-2104" target="6XLFOW6tzgMGZKUMcbwn-2105" parent="1">
          <mxGeometry relative="1" as="geometry" />
        </mxCell>
        <mxCell id="6XLFOW6tzgMGZKUMcbwn-2104" value="" style="rounded=0;whiteSpace=wrap;html=1;align=center;" vertex="1" parent="1">
          <mxGeometry x="1920" y="909" width="140" height="31" as="geometry" />
        </mxCell>
        <mxCell id="6XLFOW6tzgMGZKUMcbwn-2105" value="" style="ellipse;whiteSpace=wrap;html=1;" vertex="1" parent="1">
          <mxGeometry x="1950" y="980" width="80" height="30" as="geometry" />
        </mxCell>
        <mxCell id="6XLFOW6tzgMGZKUMcbwn-2107" value="" style="shape=flexArrow;endArrow=classic;html=1;rounded=0;" edge="1" parent="1">
          <mxGeometry width="50" height="50" relative="1" as="geometry">
            <mxPoint x="100" y="580" as="sourcePoint" />
            <mxPoint x="100" y="620" as="targetPoint" />
          </mxGeometry>
        </mxCell>
        <mxCell id="6XLFOW6tzgMGZKUMcbwn-2108" value="Flujo inicial" style="text;html=1;strokeColor=none;fillColor=none;align=center;verticalAlign=middle;whiteSpace=wrap;rounded=0;" vertex="1" parent="1">
          <mxGeometry x="70" y="550" width="70" height="30" as="geometry" />
        </mxCell>
        <mxCell id="6XLFOW6tzgMGZKUMcbwn-2117" style="edgeStyle=orthogonalEdgeStyle;rounded=0;orthogonalLoop=1;jettySize=auto;html=1;exitX=0.5;exitY=1;exitDx=0;exitDy=0;entryX=0.5;entryY=0;entryDx=0;entryDy=0;" edge="1" parent="1" source="6XLFOW6tzgMGZKUMcbwn-2109" target="6XLFOW6tzgMGZKUMcbwn-2116">
          <mxGeometry relative="1" as="geometry" />
        </mxCell>
        <mxCell id="6XLFOW6tzgMGZKUMcbwn-2109" value="Escriba breve título del problema" style="rounded=0;whiteSpace=wrap;html=1;" vertex="1" parent="1">
          <mxGeometry x="729" y="1800" width="120" height="60" as="geometry" />
        </mxCell>
        <mxCell id="6XLFOW6tzgMGZKUMcbwn-2110" style="edgeStyle=orthogonalEdgeStyle;rounded=0;orthogonalLoop=1;jettySize=auto;html=1;exitX=0.5;exitY=1;exitDx=0;exitDy=0;entryX=0.5;entryY=0;entryDx=0;entryDy=0;" edge="1" source="6XLFOW6tzgMGZKUMcbwn-2111" target="6XLFOW6tzgMGZKUMcbwn-2109" parent="1">
          <mxGeometry relative="1" as="geometry" />
        </mxCell>
        <mxCell id="6XLFOW6tzgMGZKUMcbwn-2111" value="Pregunta" style="text;html=1;strokeColor=none;fillColor=none;align=center;verticalAlign=middle;whiteSpace=wrap;rounded=0;" vertex="1" parent="1">
          <mxGeometry x="758.5" y="1765" width="60" height="15" as="geometry" />
        </mxCell>
        <mxCell id="6XLFOW6tzgMGZKUMcbwn-2118" style="edgeStyle=orthogonalEdgeStyle;rounded=0;orthogonalLoop=1;jettySize=auto;html=1;exitX=0.5;exitY=1;exitDx=0;exitDy=0;entryX=0.5;entryY=0;entryDx=0;entryDy=0;" edge="1" parent="1" source="6XLFOW6tzgMGZKUMcbwn-2114" target="6XLFOW6tzgMGZKUMcbwn-1960">
          <mxGeometry relative="1" as="geometry">
            <Array as="points">
              <mxPoint x="790" y="1990" />
              <mxPoint x="713" y="1990" />
            </Array>
          </mxGeometry>
        </mxCell>
        <mxCell id="6XLFOW6tzgMGZKUMcbwn-2114" value="Escriba descripción del problema" style="rounded=0;whiteSpace=wrap;html=1;" vertex="1" parent="1">
          <mxGeometry x="730" y="1915" width="120" height="60" as="geometry" />
        </mxCell>
        <mxCell id="6XLFOW6tzgMGZKUMcbwn-2115" style="edgeStyle=orthogonalEdgeStyle;rounded=0;orthogonalLoop=1;jettySize=auto;html=1;exitX=0.5;exitY=1;exitDx=0;exitDy=0;entryX=0.5;entryY=0;entryDx=0;entryDy=0;" edge="1" source="6XLFOW6tzgMGZKUMcbwn-2116" target="6XLFOW6tzgMGZKUMcbwn-2114" parent="1">
          <mxGeometry relative="1" as="geometry" />
        </mxCell>
        <mxCell id="6XLFOW6tzgMGZKUMcbwn-2116" value="Pregunta" style="text;html=1;strokeColor=none;fillColor=none;align=center;verticalAlign=middle;whiteSpace=wrap;rounded=0;" vertex="1" parent="1">
          <mxGeometry x="759.5" y="1880" width="60" height="15" as="geometry" />
        </mxCell>
        <mxCell id="6XLFOW6tzgMGZKUMcbwn-2122" value="Mensaje" style="text;html=1;strokeColor=none;fillColor=none;align=center;verticalAlign=middle;whiteSpace=wrap;rounded=0;" vertex="1" parent="1">
          <mxGeometry x="759.5" y="2000" width="60" height="10" as="geometry" />
        </mxCell>
        <mxCell id="6XLFOW6tzgMGZKUMcbwn-2125" value="" style="rounded=0;whiteSpace=wrap;html=1;" vertex="1" parent="1">
          <mxGeometry x="1415" y="1150" width="120" height="60" as="geometry" />
        </mxCell>
        <mxCell id="6XLFOW6tzgMGZKUMcbwn-2128" value="" style="rounded=0;whiteSpace=wrap;html=1;" vertex="1" parent="1">
          <mxGeometry x="1565" y="1150" width="120" height="60" as="geometry" />
        </mxCell>
        <mxCell id="6XLFOW6tzgMGZKUMcbwn-2133" value="" style="shape=flexArrow;endArrow=classic;html=1;rounded=0;" edge="1" parent="1">
          <mxGeometry width="50" height="50" relative="1" as="geometry">
            <mxPoint x="362.5" y="580" as="sourcePoint" />
            <mxPoint x="362.5" y="620" as="targetPoint" />
          </mxGeometry>
        </mxCell>
        <mxCell id="6XLFOW6tzgMGZKUMcbwn-2134" value="Flujo Final" style="text;html=1;strokeColor=none;fillColor=none;align=center;verticalAlign=middle;whiteSpace=wrap;rounded=0;" vertex="1" parent="1">
          <mxGeometry x="332.5" y="550" width="60" height="30" as="geometry" />
        </mxCell>
        <mxCell id="6XLFOW6tzgMGZKUMcbwn-2136" value="Depende de la respuesta del usuario se inicia flujo openai o se le da respuesta si cumple con alguna frase desencadenadora" style="rounded=1;whiteSpace=wrap;html=1;shape=hexagon;perimeter=hexagonPerimeter2;fixedSize=1;" vertex="1" parent="1">
          <mxGeometry x="-300" y="2100" width="270" height="70" as="geometry" />
        </mxCell>
        <mxCell id="6XLFOW6tzgMGZKUMcbwn-2137" value="Devuelve respuesta del modelo&amp;nbsp;&lt;br&gt;gpt-35-turbo" style="text;html=1;strokeColor=none;fillColor=none;align=center;verticalAlign=middle;whiteSpace=wrap;rounded=0;" vertex="1" parent="1">
          <mxGeometry x="1465" y="1050" width="170" height="30" as="geometry" />
        </mxCell>
        <mxCell id="6XLFOW6tzgMGZKUMcbwn-2141" value="&lt;font style=&quot;font-size: 6px;&quot;&gt;Se puede añadir encuesta&lt;/font&gt;" style="shape=callout;whiteSpace=wrap;html=1;perimeter=calloutPerimeter;size=20;position=0.55;base=14;" vertex="1" parent="1">
          <mxGeometry x="722.5" y="365" width="77.5" height="35" as="geometry" />
        </mxCell>
        <mxCell id="6XLFOW6tzgMGZKUMcbwn-2143" value="Flujos de power automate" style="ellipse;whiteSpace=wrap;html=1;" vertex="1" parent="1">
          <mxGeometry x="1410" y="200" width="120" height="80" as="geometry" />
        </mxCell>
        <mxCell id="6XLFOW6tzgMGZKUMcbwn-2144" value="FlujoOpenAI" style="shape=parallelogram;perimeter=parallelogramPerimeter;whiteSpace=wrap;html=1;fixedSize=1;" vertex="1" parent="1">
          <mxGeometry x="1280" y="295" width="110" height="20" as="geometry" />
        </mxCell>
        <mxCell id="6XLFOW6tzgMGZKUMcbwn-2159" style="edgeStyle=orthogonalEdgeStyle;rounded=0;orthogonalLoop=1;jettySize=auto;html=1;exitX=0.5;exitY=1;exitDx=0;exitDy=0;entryX=0.5;entryY=0;entryDx=0;entryDy=0;" edge="1" parent="1" source="6XLFOW6tzgMGZKUMcbwn-2146" target="6XLFOW6tzgMGZKUMcbwn-2147">
          <mxGeometry relative="1" as="geometry" />
        </mxCell>
        <mxCell id="6XLFOW6tzgMGZKUMcbwn-2146" value="Power Virtual Agents" style="rounded=0;whiteSpace=wrap;html=1;" vertex="1" parent="1">
          <mxGeometry x="1270" y="340" width="120" height="20" as="geometry" />
        </mxCell>
        <mxCell id="6XLFOW6tzgMGZKUMcbwn-2160" style="edgeStyle=orthogonalEdgeStyle;rounded=0;orthogonalLoop=1;jettySize=auto;html=1;exitX=0.5;exitY=1;exitDx=0;exitDy=0;entryX=0.5;entryY=0;entryDx=0;entryDy=0;" edge="1" parent="1" source="6XLFOW6tzgMGZKUMcbwn-2147" target="6XLFOW6tzgMGZKUMcbwn-2148">
          <mxGeometry relative="1" as="geometry" />
        </mxCell>
        <mxCell id="6XLFOW6tzgMGZKUMcbwn-2147" value="HTTP" style="rounded=0;whiteSpace=wrap;html=1;" vertex="1" parent="1">
          <mxGeometry x="1270" y="380" width="120" height="17.5" as="geometry" />
        </mxCell>
        <mxCell id="6XLFOW6tzgMGZKUMcbwn-2161" style="edgeStyle=orthogonalEdgeStyle;rounded=0;orthogonalLoop=1;jettySize=auto;html=1;exitX=0.5;exitY=1;exitDx=0;exitDy=0;entryX=0.5;entryY=0;entryDx=0;entryDy=0;" edge="1" parent="1" source="6XLFOW6tzgMGZKUMcbwn-2148" target="6XLFOW6tzgMGZKUMcbwn-2149">
          <mxGeometry relative="1" as="geometry" />
        </mxCell>
        <mxCell id="6XLFOW6tzgMGZKUMcbwn-2148" value="Parse JSON" style="rounded=0;whiteSpace=wrap;html=1;" vertex="1" parent="1">
          <mxGeometry x="1270" y="417.5" width="120" height="17.5" as="geometry" />
        </mxCell>
        <mxCell id="6XLFOW6tzgMGZKUMcbwn-2162" style="edgeStyle=orthogonalEdgeStyle;rounded=0;orthogonalLoop=1;jettySize=auto;html=1;exitX=0.5;exitY=1;exitDx=0;exitDy=0;entryX=0.5;entryY=0;entryDx=0;entryDy=0;" edge="1" parent="1" source="6XLFOW6tzgMGZKUMcbwn-2149" target="6XLFOW6tzgMGZKUMcbwn-2150">
          <mxGeometry relative="1" as="geometry" />
        </mxCell>
        <mxCell id="6XLFOW6tzgMGZKUMcbwn-2149" value="Respuesta" style="rounded=0;whiteSpace=wrap;html=1;" vertex="1" parent="1">
          <mxGeometry x="1270" y="456.25" width="120" height="17.5" as="geometry" />
        </mxCell>
        <mxCell id="6XLFOW6tzgMGZKUMcbwn-2150" value="Return value(s) to Power Virtual Agents" style="rounded=0;whiteSpace=wrap;html=1;" vertex="1" parent="1">
          <mxGeometry x="1270" y="495" width="120" height="32.5" as="geometry" />
        </mxCell>
        <mxCell id="6XLFOW6tzgMGZKUMcbwn-2163" value="Inicia flujo&lt;br&gt;&quot;OpenAI&quot;" style="rounded=0;whiteSpace=wrap;html=1;" vertex="1" parent="1">
          <mxGeometry x="-95" y="405" width="85" height="30" as="geometry" />
        </mxCell>
        <mxCell id="6XLFOW6tzgMGZKUMcbwn-2164" value="Inicia flujo&lt;br&gt;&quot;Soporte&quot;" style="rounded=0;whiteSpace=wrap;html=1;" vertex="1" parent="1">
          <mxGeometry x="72.5" y="405" width="85" height="30" as="geometry" />
        </mxCell>
        <mxCell id="6XLFOW6tzgMGZKUMcbwn-2165" value="Inicia flujo &quot;Documentación&quot;" style="rounded=0;whiteSpace=wrap;html=1;" vertex="1" parent="1">
          <mxGeometry x="218.75" y="405" width="102.5" height="30" as="geometry" />
        </mxCell>
        <mxCell id="6XLFOW6tzgMGZKUMcbwn-2166" value="Inicia flujo&lt;br&gt;&quot;Remitir a un superior (Soporte)&quot;" style="rounded=0;whiteSpace=wrap;html=1;" vertex="1" parent="1">
          <mxGeometry x="360" y="407.5" width="140" height="45" as="geometry" />
        </mxCell>
        <mxCell id="6XLFOW6tzgMGZKUMcbwn-2177" value="Muchas gracias" style="rounded=0;whiteSpace=wrap;html=1;" vertex="1" parent="1">
          <mxGeometry x="-325" y="670" width="60" height="30" as="geometry" />
        </mxCell>
        <mxCell id="6XLFOW6tzgMGZKUMcbwn-2178" style="edgeStyle=orthogonalEdgeStyle;rounded=0;orthogonalLoop=1;jettySize=auto;html=1;exitX=0.5;exitY=1;exitDx=0;exitDy=0;" edge="1" parent="1" source="6XLFOW6tzgMGZKUMcbwn-2179" target="6XLFOW6tzgMGZKUMcbwn-2181">
          <mxGeometry relative="1" as="geometry" />
        </mxCell>
        <mxCell id="6XLFOW6tzgMGZKUMcbwn-2179" value="&lt;div&gt;gracias&lt;/div&gt;&lt;div&gt;¡gracias!&lt;/div&gt;&lt;div&gt;muchas gracias&lt;/div&gt;&lt;div&gt;grcs&lt;/div&gt;" style="rounded=0;whiteSpace=wrap;html=1;align=left;" vertex="1" parent="1">
          <mxGeometry x="-345" y="709" width="100" height="71" as="geometry" />
        </mxCell>
        <mxCell id="6XLFOW6tzgMGZKUMcbwn-2180" style="edgeStyle=orthogonalEdgeStyle;rounded=0;orthogonalLoop=1;jettySize=auto;html=1;exitX=0.5;exitY=1;exitDx=0;exitDy=0;entryX=0.5;entryY=0;entryDx=0;entryDy=0;" edge="1" parent="1" source="6XLFOW6tzgMGZKUMcbwn-2181" target="6XLFOW6tzgMGZKUMcbwn-2183">
          <mxGeometry relative="1" as="geometry" />
        </mxCell>
        <mxCell id="6XLFOW6tzgMGZKUMcbwn-2181" value="Mensaje" style="text;html=1;strokeColor=none;fillColor=none;align=center;verticalAlign=middle;whiteSpace=wrap;rounded=0;" vertex="1" parent="1">
          <mxGeometry x="-325" y="807" width="60" height="20" as="geometry" />
        </mxCell>
        <mxCell id="6XLFOW6tzgMGZKUMcbwn-2183" value="De nada!" style="rounded=0;whiteSpace=wrap;html=1;" vertex="1" parent="1">
          <mxGeometry x="-375" y="853.75" width="160" height="36.25" as="geometry" />
        </mxCell>
        <mxCell id="6XLFOW6tzgMGZKUMcbwn-2188" style="edgeStyle=orthogonalEdgeStyle;rounded=0;orthogonalLoop=1;jettySize=auto;html=1;exitX=0.5;exitY=1;exitDx=0;exitDy=0;entryX=0.5;entryY=0;entryDx=0;entryDy=0;" edge="1" parent="1" source="6XLFOW6tzgMGZKUMcbwn-2192" target="6XLFOW6tzgMGZKUMcbwn-2198">
          <mxGeometry relative="1" as="geometry" />
        </mxCell>
        <mxCell id="6XLFOW6tzgMGZKUMcbwn-2189" style="edgeStyle=orthogonalEdgeStyle;rounded=0;orthogonalLoop=1;jettySize=auto;html=1;exitX=0.5;exitY=1;exitDx=0;exitDy=0;entryX=0.5;entryY=0;entryDx=0;entryDy=0;" edge="1" parent="1" source="6XLFOW6tzgMGZKUMcbwn-2192" target="6XLFOW6tzgMGZKUMcbwn-2196">
          <mxGeometry relative="1" as="geometry" />
        </mxCell>
        <mxCell id="6XLFOW6tzgMGZKUMcbwn-2190" style="edgeStyle=orthogonalEdgeStyle;rounded=0;orthogonalLoop=1;jettySize=auto;html=1;exitX=0.5;exitY=1;exitDx=0;exitDy=0;entryX=0.5;entryY=0;entryDx=0;entryDy=0;" edge="1" parent="1" source="6XLFOW6tzgMGZKUMcbwn-2192" target="6XLFOW6tzgMGZKUMcbwn-2200">
          <mxGeometry relative="1" as="geometry" />
        </mxCell>
        <mxCell id="6XLFOW6tzgMGZKUMcbwn-2191" style="edgeStyle=orthogonalEdgeStyle;rounded=0;orthogonalLoop=1;jettySize=auto;html=1;exitX=0.5;exitY=1;exitDx=0;exitDy=0;entryX=0.5;entryY=0;entryDx=0;entryDy=0;" edge="1" parent="1" source="6XLFOW6tzgMGZKUMcbwn-2192" target="6XLFOW6tzgMGZKUMcbwn-2194">
          <mxGeometry relative="1" as="geometry" />
        </mxCell>
        <mxCell id="6XLFOW6tzgMGZKUMcbwn-2192" value="Botones sugerencias" style="ellipse;whiteSpace=wrap;html=1;" vertex="1" parent="1">
          <mxGeometry x="55" y="2160" width="90" height="50" as="geometry" />
        </mxCell>
        <mxCell id="6XLFOW6tzgMGZKUMcbwn-2255" style="edgeStyle=orthogonalEdgeStyle;rounded=0;orthogonalLoop=1;jettySize=auto;html=1;exitX=0.5;exitY=1;exitDx=0;exitDy=0;entryX=0.5;entryY=0;entryDx=0;entryDy=0;" edge="1" parent="1" source="6XLFOW6tzgMGZKUMcbwn-2194" target="6XLFOW6tzgMGZKUMcbwn-2254">
          <mxGeometry relative="1" as="geometry" />
        </mxCell>
        <mxCell id="6XLFOW6tzgMGZKUMcbwn-2194" value="Herramientas disponibles" style="shape=parallelogram;perimeter=parallelogramPerimeter;whiteSpace=wrap;html=1;fixedSize=1;" vertex="1" parent="1">
          <mxGeometry x="262.5" y="2260" width="177.5" height="20" as="geometry" />
        </mxCell>
        <mxCell id="6XLFOW6tzgMGZKUMcbwn-2195" style="edgeStyle=orthogonalEdgeStyle;rounded=0;orthogonalLoop=1;jettySize=auto;html=1;exitX=0.5;exitY=1;exitDx=0;exitDy=0;entryX=0.5;entryY=0;entryDx=0;entryDy=0;" edge="1" parent="1" source="6XLFOW6tzgMGZKUMcbwn-2196">
          <mxGeometry relative="1" as="geometry">
            <mxPoint x="37.5" y="2315" as="targetPoint" />
          </mxGeometry>
        </mxCell>
        <mxCell id="6XLFOW6tzgMGZKUMcbwn-2196" value="Reportar un problema" style="shape=parallelogram;perimeter=parallelogramPerimeter;whiteSpace=wrap;html=1;fixedSize=1;" vertex="1" parent="1">
          <mxGeometry x="-47.5" y="2260" width="170" height="20" as="geometry" />
        </mxCell>
        <mxCell id="6XLFOW6tzgMGZKUMcbwn-2197" style="edgeStyle=orthogonalEdgeStyle;rounded=0;orthogonalLoop=1;jettySize=auto;html=1;exitX=0.5;exitY=1;exitDx=0;exitDy=0;entryX=0.5;entryY=0;entryDx=0;entryDy=0;" edge="1" parent="1" source="6XLFOW6tzgMGZKUMcbwn-2198" target="6XLFOW6tzgMGZKUMcbwn-2201">
          <mxGeometry relative="1" as="geometry" />
        </mxCell>
        <mxCell id="6XLFOW6tzgMGZKUMcbwn-2198" value="Hacer una pregunta (IA)" style="shape=parallelogram;perimeter=parallelogramPerimeter;whiteSpace=wrap;html=1;fixedSize=1;" vertex="1" parent="1">
          <mxGeometry x="-212.5" y="2260" width="165" height="20" as="geometry" />
        </mxCell>
        <mxCell id="6XLFOW6tzgMGZKUMcbwn-2252" style="edgeStyle=orthogonalEdgeStyle;rounded=0;orthogonalLoop=1;jettySize=auto;html=1;exitX=0.5;exitY=1;exitDx=0;exitDy=0;entryX=0.5;entryY=0;entryDx=0;entryDy=0;" edge="1" parent="1" source="6XLFOW6tzgMGZKUMcbwn-2200" target="6XLFOW6tzgMGZKUMcbwn-2203">
          <mxGeometry relative="1" as="geometry" />
        </mxCell>
        <mxCell id="6XLFOW6tzgMGZKUMcbwn-2200" value="Documentación" style="shape=parallelogram;perimeter=parallelogramPerimeter;whiteSpace=wrap;html=1;fixedSize=1;" vertex="1" parent="1">
          <mxGeometry x="122.5" y="2260" width="140" height="20" as="geometry" />
        </mxCell>
        <mxCell id="6XLFOW6tzgMGZKUMcbwn-2201" value="Inicia flujo&lt;br&gt;&quot;OpenAI&quot;" style="rounded=0;whiteSpace=wrap;html=1;" vertex="1" parent="1">
          <mxGeometry x="-172.5" y="2315" width="85" height="30" as="geometry" />
        </mxCell>
        <mxCell id="6XLFOW6tzgMGZKUMcbwn-2203" value="Inicia flujo &quot;OpenAI&quot;&lt;br&gt;o&lt;br&gt;Inicia flujo&lt;br&gt;&quot;Documentación&quot;" style="rounded=0;whiteSpace=wrap;html=1;" vertex="1" parent="1">
          <mxGeometry x="160" y="2310" width="93.75" height="95" as="geometry" />
        </mxCell>
        <mxCell id="6XLFOW6tzgMGZKUMcbwn-2258" style="edgeStyle=orthogonalEdgeStyle;rounded=0;orthogonalLoop=1;jettySize=auto;html=1;exitX=1;exitY=0.5;exitDx=0;exitDy=0;entryX=0;entryY=0.5;entryDx=0;entryDy=0;" edge="1" parent="1" source="6XLFOW6tzgMGZKUMcbwn-2204" target="6XLFOW6tzgMGZKUMcbwn-2257">
          <mxGeometry relative="1" as="geometry" />
        </mxCell>
        <mxCell id="6XLFOW6tzgMGZKUMcbwn-2263" style="edgeStyle=orthogonalEdgeStyle;rounded=0;orthogonalLoop=1;jettySize=auto;html=1;exitX=1;exitY=0.5;exitDx=0;exitDy=0;entryX=0;entryY=0.5;entryDx=0;entryDy=0;" edge="1" parent="1" source="6XLFOW6tzgMGZKUMcbwn-2204" target="6XLFOW6tzgMGZKUMcbwn-2260">
          <mxGeometry relative="1" as="geometry">
            <Array as="points">
              <mxPoint x="430" y="2368" />
              <mxPoint x="430" y="2430" />
            </Array>
          </mxGeometry>
        </mxCell>
        <mxCell id="6XLFOW6tzgMGZKUMcbwn-2264" style="edgeStyle=orthogonalEdgeStyle;rounded=0;orthogonalLoop=1;jettySize=auto;html=1;exitX=1;exitY=0.5;exitDx=0;exitDy=0;entryX=0;entryY=0.5;entryDx=0;entryDy=0;" edge="1" parent="1" source="6XLFOW6tzgMGZKUMcbwn-2204" target="6XLFOW6tzgMGZKUMcbwn-2262">
          <mxGeometry relative="1" as="geometry">
            <Array as="points">
              <mxPoint x="430" y="2368" />
              <mxPoint x="430" y="2495" />
            </Array>
          </mxGeometry>
        </mxCell>
        <mxCell id="6XLFOW6tzgMGZKUMcbwn-2204" value="Seleccione una de las siguientes opciones:" style="rounded=0;whiteSpace=wrap;html=1;" vertex="1" parent="1">
          <mxGeometry x="281.25" y="2345" width="140" height="45" as="geometry" />
        </mxCell>
        <mxCell id="6XLFOW6tzgMGZKUMcbwn-2209" style="edgeStyle=orthogonalEdgeStyle;rounded=0;orthogonalLoop=1;jettySize=auto;html=1;exitX=0.5;exitY=1;exitDx=0;exitDy=0;entryX=0.5;entryY=0;entryDx=0;entryDy=0;" edge="1" parent="1" source="6XLFOW6tzgMGZKUMcbwn-2207" target="6XLFOW6tzgMGZKUMcbwn-2208">
          <mxGeometry relative="1" as="geometry" />
        </mxCell>
        <mxCell id="6XLFOW6tzgMGZKUMcbwn-2207" value="Pregunta" style="text;html=1;strokeColor=none;fillColor=none;align=center;verticalAlign=middle;whiteSpace=wrap;rounded=0;" vertex="1" parent="1">
          <mxGeometry x="7.5" y="2315" width="60" height="25" as="geometry" />
        </mxCell>
        <mxCell id="6XLFOW6tzgMGZKUMcbwn-2238" style="edgeStyle=orthogonalEdgeStyle;rounded=0;orthogonalLoop=1;jettySize=auto;html=1;exitX=0;exitY=0.25;exitDx=0;exitDy=0;entryX=0.989;entryY=0.38;entryDx=0;entryDy=0;entryPerimeter=0;" edge="1" parent="1" source="6XLFOW6tzgMGZKUMcbwn-2208" target="6XLFOW6tzgMGZKUMcbwn-2210">
          <mxGeometry relative="1" as="geometry">
            <Array as="points" />
          </mxGeometry>
        </mxCell>
        <mxCell id="6XLFOW6tzgMGZKUMcbwn-2239" style="edgeStyle=orthogonalEdgeStyle;rounded=0;orthogonalLoop=1;jettySize=auto;html=1;exitX=1;exitY=0.25;exitDx=0;exitDy=0;" edge="1" parent="1" source="6XLFOW6tzgMGZKUMcbwn-2208" target="6XLFOW6tzgMGZKUMcbwn-2211">
          <mxGeometry relative="1" as="geometry">
            <Array as="points">
              <mxPoint x="210" y="2482" />
              <mxPoint x="210" y="2482" />
            </Array>
          </mxGeometry>
        </mxCell>
        <mxCell id="6XLFOW6tzgMGZKUMcbwn-2208" value="&lt;p&gt;¿Su problema está relacionado con alguna de las aplicaciones transversales?&lt;/p&gt;&lt;ul&gt;&lt;li&gt;AccessControlDB&lt;/li&gt;&lt;li&gt;Analizador de requerimientos&lt;/li&gt;&lt;li&gt;Apigee&lt;/li&gt;&lt;li&gt;Aprovisionamiento&lt;/li&gt;&lt;li&gt;Arquitectura Frameworks&lt;/li&gt;&lt;li&gt;AutoDB&lt;/li&gt;&lt;li&gt;capacidadestiapp&lt;/li&gt;&lt;li&gt;Conexión Terceros&lt;/li&gt;&lt;li&gt;CostantManager&lt;/li&gt;&lt;li&gt;Cronos&lt;/li&gt;&lt;li&gt;DISE&lt;/li&gt;&lt;li&gt;Holmes&lt;/li&gt;&lt;li&gt;Legos App&lt;/li&gt;&lt;li&gt;Listas Maestras&lt;/li&gt;&lt;li&gt;Login&lt;/li&gt;&lt;li&gt;Modulo de administración de direccionamiento IP (AdminIP)&lt;/li&gt;&lt;li&gt;parametrosapp&lt;/li&gt;&lt;li&gt;Portafolio de Aplicaciones&lt;/li&gt;&lt;li&gt;Portal controles de accesos&lt;/li&gt;&lt;li&gt;ProxyPubs&lt;/li&gt;&lt;li&gt;Pubs&lt;/li&gt;&lt;li&gt;Seus 3&lt;/li&gt;&lt;li&gt;Seus 4&lt;/li&gt;&lt;li&gt;STOnline&lt;/li&gt;&lt;li&gt;Surabroker&lt;/li&gt;&lt;li&gt;Visor de aplicaciones&lt;/li&gt;&lt;/ul&gt;" style="rounded=0;whiteSpace=wrap;html=1;align=left;" vertex="1" parent="1">
          <mxGeometry x="-70.62" y="2370" width="216.25" height="450" as="geometry" />
        </mxCell>
        <mxCell id="6XLFOW6tzgMGZKUMcbwn-2241" style="edgeStyle=orthogonalEdgeStyle;rounded=0;orthogonalLoop=1;jettySize=auto;html=1;exitX=0.5;exitY=1;exitDx=0;exitDy=0;entryX=0.5;entryY=0;entryDx=0;entryDy=0;" edge="1" parent="1" source="6XLFOW6tzgMGZKUMcbwn-2210" target="6XLFOW6tzgMGZKUMcbwn-2213">
          <mxGeometry relative="1" as="geometry" />
        </mxCell>
        <mxCell id="6XLFOW6tzgMGZKUMcbwn-2210" value="Si" style="text;html=1;strokeColor=none;fillColor=none;align=center;verticalAlign=middle;whiteSpace=wrap;rounded=0;" vertex="1" parent="1">
          <mxGeometry x="-177.81" y="2475" width="30.62" height="20" as="geometry" />
        </mxCell>
        <mxCell id="6XLFOW6tzgMGZKUMcbwn-2240" style="edgeStyle=orthogonalEdgeStyle;rounded=0;orthogonalLoop=1;jettySize=auto;html=1;exitX=0.5;exitY=1;exitDx=0;exitDy=0;entryX=0.5;entryY=0;entryDx=0;entryDy=0;" edge="1" parent="1" source="6XLFOW6tzgMGZKUMcbwn-2211" target="6XLFOW6tzgMGZKUMcbwn-2227">
          <mxGeometry relative="1" as="geometry" />
        </mxCell>
        <mxCell id="6XLFOW6tzgMGZKUMcbwn-2211" value="No" style="text;html=1;strokeColor=none;fillColor=none;align=center;verticalAlign=middle;whiteSpace=wrap;rounded=0;" vertex="1" parent="1">
          <mxGeometry x="232.5" y="2475" width="30" height="20" as="geometry" />
        </mxCell>
        <mxCell id="6XLFOW6tzgMGZKUMcbwn-2242" style="edgeStyle=orthogonalEdgeStyle;rounded=0;orthogonalLoop=1;jettySize=auto;html=1;exitX=0.5;exitY=1;exitDx=0;exitDy=0;entryX=0.5;entryY=0;entryDx=0;entryDy=0;" edge="1" parent="1" source="6XLFOW6tzgMGZKUMcbwn-2213" target="6XLFOW6tzgMGZKUMcbwn-2214">
          <mxGeometry relative="1" as="geometry" />
        </mxCell>
        <mxCell id="6XLFOW6tzgMGZKUMcbwn-2213" value="Pregunta" style="text;html=1;strokeColor=none;fillColor=none;align=center;verticalAlign=middle;whiteSpace=wrap;rounded=0;" vertex="1" parent="1">
          <mxGeometry x="-192.5" y="2520" width="60" height="20" as="geometry" />
        </mxCell>
        <mxCell id="6XLFOW6tzgMGZKUMcbwn-2243" style="edgeStyle=orthogonalEdgeStyle;rounded=0;orthogonalLoop=1;jettySize=auto;html=1;exitX=0.5;exitY=1;exitDx=0;exitDy=0;entryX=0.5;entryY=0;entryDx=0;entryDy=0;" edge="1" parent="1" source="6XLFOW6tzgMGZKUMcbwn-2214" target="6XLFOW6tzgMGZKUMcbwn-2220">
          <mxGeometry relative="1" as="geometry" />
        </mxCell>
        <mxCell id="6XLFOW6tzgMGZKUMcbwn-2245" style="edgeStyle=orthogonalEdgeStyle;rounded=0;orthogonalLoop=1;jettySize=auto;html=1;exitX=0;exitY=0.5;exitDx=0;exitDy=0;entryX=1;entryY=0.5;entryDx=0;entryDy=0;" edge="1" parent="1" source="6XLFOW6tzgMGZKUMcbwn-2214" target="6XLFOW6tzgMGZKUMcbwn-2219">
          <mxGeometry relative="1" as="geometry" />
        </mxCell>
        <mxCell id="6XLFOW6tzgMGZKUMcbwn-2214" value="¿Ya tiene incidente creado?" style="rounded=0;whiteSpace=wrap;html=1;" vertex="1" parent="1">
          <mxGeometry x="-222.5" y="2575" width="120" height="50" as="geometry" />
        </mxCell>
        <mxCell id="6XLFOW6tzgMGZKUMcbwn-2246" style="edgeStyle=orthogonalEdgeStyle;rounded=0;orthogonalLoop=1;jettySize=auto;html=1;exitX=0;exitY=0.5;exitDx=0;exitDy=0;entryX=1;entryY=0.5;entryDx=0;entryDy=0;" edge="1" parent="1" source="6XLFOW6tzgMGZKUMcbwn-2219" target="6XLFOW6tzgMGZKUMcbwn-2221">
          <mxGeometry relative="1" as="geometry" />
        </mxCell>
        <mxCell id="6XLFOW6tzgMGZKUMcbwn-2219" value="Si" style="text;html=1;strokeColor=none;fillColor=none;align=center;verticalAlign=middle;whiteSpace=wrap;rounded=0;" vertex="1" parent="1">
          <mxGeometry x="-278.12" y="2590" width="30.62" height="20" as="geometry" />
        </mxCell>
        <mxCell id="6XLFOW6tzgMGZKUMcbwn-2244" style="edgeStyle=orthogonalEdgeStyle;rounded=0;orthogonalLoop=1;jettySize=auto;html=1;exitX=0.5;exitY=1;exitDx=0;exitDy=0;entryX=0.5;entryY=0;entryDx=0;entryDy=0;" edge="1" parent="1" source="6XLFOW6tzgMGZKUMcbwn-2220" target="6XLFOW6tzgMGZKUMcbwn-2224">
          <mxGeometry relative="1" as="geometry" />
        </mxCell>
        <mxCell id="6XLFOW6tzgMGZKUMcbwn-2220" value="No" style="text;html=1;strokeColor=none;fillColor=none;align=center;verticalAlign=middle;whiteSpace=wrap;rounded=0;" vertex="1" parent="1">
          <mxGeometry x="-177.19" y="2650" width="30" height="20" as="geometry" />
        </mxCell>
        <mxCell id="6XLFOW6tzgMGZKUMcbwn-2247" style="edgeStyle=orthogonalEdgeStyle;rounded=0;orthogonalLoop=1;jettySize=auto;html=1;exitX=0.5;exitY=1;exitDx=0;exitDy=0;entryX=0.5;entryY=0;entryDx=0;entryDy=0;" edge="1" parent="1" source="6XLFOW6tzgMGZKUMcbwn-2221" target="6XLFOW6tzgMGZKUMcbwn-2223">
          <mxGeometry relative="1" as="geometry" />
        </mxCell>
        <mxCell id="6XLFOW6tzgMGZKUMcbwn-2221" value="Por favor escriba el número del incidente sin espacios ni símbolos adicionales." style="rounded=0;whiteSpace=wrap;html=1;" vertex="1" parent="1">
          <mxGeometry x="-420" y="2570" width="120" height="60" as="geometry" />
        </mxCell>
        <mxCell id="6XLFOW6tzgMGZKUMcbwn-2222" value="Iniciar flujo&lt;br&gt;&quot;Remitir a un superior&quot;" style="rounded=0;whiteSpace=wrap;html=1;align=center;" vertex="1" parent="1">
          <mxGeometry x="-395" y="2718.5" width="70" height="60" as="geometry" />
        </mxCell>
        <mxCell id="6XLFOW6tzgMGZKUMcbwn-2248" style="edgeStyle=orthogonalEdgeStyle;rounded=0;orthogonalLoop=1;jettySize=auto;html=1;exitX=0.5;exitY=1;exitDx=0;exitDy=0;entryX=0.5;entryY=0;entryDx=0;entryDy=0;" edge="1" parent="1" source="6XLFOW6tzgMGZKUMcbwn-2223" target="6XLFOW6tzgMGZKUMcbwn-2222">
          <mxGeometry relative="1" as="geometry" />
        </mxCell>
        <mxCell id="6XLFOW6tzgMGZKUMcbwn-2223" value="bot.incidente&lt;br&gt;(Variable)" style="text;html=1;strokeColor=none;fillColor=none;align=center;verticalAlign=middle;whiteSpace=wrap;rounded=0;" vertex="1" parent="1">
          <mxGeometry x="-390" y="2661" width="60" height="30" as="geometry" />
        </mxCell>
        <mxCell id="6XLFOW6tzgMGZKUMcbwn-2226" style="edgeStyle=orthogonalEdgeStyle;rounded=0;orthogonalLoop=1;jettySize=auto;html=1;exitX=0.5;exitY=1;exitDx=0;exitDy=0;entryX=0.5;entryY=0;entryDx=0;entryDy=0;" edge="1" parent="1" source="6XLFOW6tzgMGZKUMcbwn-2224" target="6XLFOW6tzgMGZKUMcbwn-2225">
          <mxGeometry relative="1" as="geometry" />
        </mxCell>
        <mxCell id="6XLFOW6tzgMGZKUMcbwn-2224" value="&lt;p&gt;Por favor crear un incidente por medio de la herramienta CA Service Desk con la categoría de:&lt;/p&gt;&lt;p&gt;&lt;span style=&quot;background-color: initial;&quot;&gt;Operacion Post Venta y Transversales - Aplicaciones Transversales de TID&lt;/span&gt;&lt;/p&gt;&lt;p&gt;Asignado al usuario:&lt;/p&gt;&lt;p&gt;&lt;span style=&quot;background-color: initial;&quot;&gt;Arquitectura, Soporte&lt;/span&gt;&lt;/p&gt;&lt;p&gt;Una vez creado el incidente su solicitud será atendida lo más pronto posible.&lt;/p&gt;&lt;p&gt;&lt;a href=&quot;https://ca-sd.suramericana.com/CAisd/pdmweb2.exe&quot;&gt;Click aquí para acceder a la herramienta&lt;/a&gt;&lt;/p&gt;" style="rounded=0;whiteSpace=wrap;html=1;align=left;" vertex="1" parent="1">
          <mxGeometry x="-222.5" y="2685" width="120" height="340" as="geometry" />
        </mxCell>
        <mxCell id="6XLFOW6tzgMGZKUMcbwn-2225" value="Fin del chat" style="text;html=1;strokeColor=none;fillColor=none;align=center;verticalAlign=middle;whiteSpace=wrap;rounded=0;" vertex="1" parent="1">
          <mxGeometry x="-192.5" y="3065" width="60" height="30" as="geometry" />
        </mxCell>
        <mxCell id="6XLFOW6tzgMGZKUMcbwn-2249" style="edgeStyle=orthogonalEdgeStyle;rounded=0;orthogonalLoop=1;jettySize=auto;html=1;exitX=0.5;exitY=1;exitDx=0;exitDy=0;entryX=0.5;entryY=0;entryDx=0;entryDy=0;" edge="1" parent="1" source="6XLFOW6tzgMGZKUMcbwn-2227" target="6XLFOW6tzgMGZKUMcbwn-2228">
          <mxGeometry relative="1" as="geometry" />
        </mxCell>
        <mxCell id="6XLFOW6tzgMGZKUMcbwn-2227" value="Pregunta" style="text;html=1;strokeColor=none;fillColor=none;align=center;verticalAlign=middle;whiteSpace=wrap;rounded=0;" vertex="1" parent="1">
          <mxGeometry x="217.5" y="2520" width="60" height="20" as="geometry" />
        </mxCell>
        <mxCell id="6XLFOW6tzgMGZKUMcbwn-2250" style="edgeStyle=orthogonalEdgeStyle;rounded=0;orthogonalLoop=1;jettySize=auto;html=1;exitX=1;exitY=0.5;exitDx=0;exitDy=0;entryX=0.5;entryY=0;entryDx=0;entryDy=0;" edge="1" parent="1" source="6XLFOW6tzgMGZKUMcbwn-2228" target="6XLFOW6tzgMGZKUMcbwn-2232">
          <mxGeometry relative="1" as="geometry" />
        </mxCell>
        <mxCell id="6XLFOW6tzgMGZKUMcbwn-2251" style="edgeStyle=orthogonalEdgeStyle;rounded=0;orthogonalLoop=1;jettySize=auto;html=1;exitX=0.5;exitY=1;exitDx=0;exitDy=0;entryX=0.5;entryY=0;entryDx=0;entryDy=0;" edge="1" parent="1" source="6XLFOW6tzgMGZKUMcbwn-2228" target="6XLFOW6tzgMGZKUMcbwn-2235">
          <mxGeometry relative="1" as="geometry" />
        </mxCell>
        <mxCell id="6XLFOW6tzgMGZKUMcbwn-2228" value="Si quiere realizar una consulta diferente por favor seleccione una de las siguientes opciones" style="rounded=0;whiteSpace=wrap;html=1;" vertex="1" parent="1">
          <mxGeometry x="187.5" y="2560" width="120" height="90" as="geometry" />
        </mxCell>
        <mxCell id="6XLFOW6tzgMGZKUMcbwn-2231" style="edgeStyle=orthogonalEdgeStyle;rounded=0;orthogonalLoop=1;jettySize=auto;html=1;exitX=0.5;exitY=1;exitDx=0;exitDy=0;entryX=0.5;entryY=0;entryDx=0;entryDy=0;" edge="1" source="6XLFOW6tzgMGZKUMcbwn-2232" target="6XLFOW6tzgMGZKUMcbwn-2233" parent="1">
          <mxGeometry relative="1" as="geometry" />
        </mxCell>
        <mxCell id="6XLFOW6tzgMGZKUMcbwn-2232" value="Hablar con analista" style="shape=parallelogram;perimeter=parallelogramPerimeter;whiteSpace=wrap;html=1;fixedSize=1;" vertex="1" parent="1">
          <mxGeometry x="379.37" y="2671" width="150" height="20" as="geometry" />
        </mxCell>
        <mxCell id="6XLFOW6tzgMGZKUMcbwn-2233" value="Inicia flujo&lt;br&gt;&quot;Remitir a un superior (Soporte)&quot;" style="rounded=0;whiteSpace=wrap;html=1;" vertex="1" parent="1">
          <mxGeometry x="384.37" y="2726" width="140" height="45" as="geometry" />
        </mxCell>
        <mxCell id="6XLFOW6tzgMGZKUMcbwn-2234" style="edgeStyle=orthogonalEdgeStyle;rounded=0;orthogonalLoop=1;jettySize=auto;html=1;exitX=0.5;exitY=1;exitDx=0;exitDy=0;entryX=0.5;entryY=0;entryDx=0;entryDy=0;" edge="1" source="6XLFOW6tzgMGZKUMcbwn-2235" target="6XLFOW6tzgMGZKUMcbwn-2236" parent="1">
          <mxGeometry relative="1" as="geometry" />
        </mxCell>
        <mxCell id="6XLFOW6tzgMGZKUMcbwn-2235" value="Hacer una pregunta (IA)" style="shape=parallelogram;perimeter=parallelogramPerimeter;whiteSpace=wrap;html=1;fixedSize=1;" vertex="1" parent="1">
          <mxGeometry x="170" y="2671" width="165" height="20" as="geometry" />
        </mxCell>
        <mxCell id="6XLFOW6tzgMGZKUMcbwn-2236" value="Inicia flujo&lt;br&gt;&quot;OpenAI&quot;" style="rounded=0;whiteSpace=wrap;html=1;" vertex="1" parent="1">
          <mxGeometry x="210" y="2726" width="85" height="30" as="geometry" />
        </mxCell>
        <mxCell id="6XLFOW6tzgMGZKUMcbwn-2253" value="Inicia flujo&lt;br&gt;&quot;Cuadre prioridad&quot;" style="rounded=0;whiteSpace=wrap;html=1;" vertex="1" parent="1">
          <mxGeometry x="696.5" y="2345" width="140" height="45" as="geometry" />
        </mxCell>
        <mxCell id="6XLFOW6tzgMGZKUMcbwn-2256" style="edgeStyle=orthogonalEdgeStyle;rounded=0;orthogonalLoop=1;jettySize=auto;html=1;exitX=0.5;exitY=1;exitDx=0;exitDy=0;entryX=0.5;entryY=0;entryDx=0;entryDy=0;" edge="1" parent="1" source="6XLFOW6tzgMGZKUMcbwn-2254" target="6XLFOW6tzgMGZKUMcbwn-2204">
          <mxGeometry relative="1" as="geometry" />
        </mxCell>
        <mxCell id="6XLFOW6tzgMGZKUMcbwn-2254" value="Pregunta" style="text;html=1;strokeColor=none;fillColor=none;align=center;verticalAlign=middle;whiteSpace=wrap;rounded=0;" vertex="1" parent="1">
          <mxGeometry x="321.25" y="2300" width="60" height="25" as="geometry" />
        </mxCell>
        <mxCell id="6XLFOW6tzgMGZKUMcbwn-2265" style="edgeStyle=orthogonalEdgeStyle;rounded=0;orthogonalLoop=1;jettySize=auto;html=1;exitX=1;exitY=0.5;exitDx=0;exitDy=0;entryX=0;entryY=0.5;entryDx=0;entryDy=0;" edge="1" parent="1" source="6XLFOW6tzgMGZKUMcbwn-2257" target="6XLFOW6tzgMGZKUMcbwn-2253">
          <mxGeometry relative="1" as="geometry" />
        </mxCell>
        <mxCell id="6XLFOW6tzgMGZKUMcbwn-2257" value="SURABROKER_Cuadre por prioridad" style="shape=parallelogram;perimeter=parallelogramPerimeter;whiteSpace=wrap;html=1;fixedSize=1;" vertex="1" parent="1">
          <mxGeometry x="452.5" y="2347.5" width="187.5" height="40" as="geometry" />
        </mxCell>
        <mxCell id="6XLFOW6tzgMGZKUMcbwn-2259" value="Inicia flujo&lt;br&gt;&quot;Herramienta 2&quot;" style="rounded=0;whiteSpace=wrap;html=1;" vertex="1" parent="1">
          <mxGeometry x="696.5" y="2407.5" width="140" height="45" as="geometry" />
        </mxCell>
        <mxCell id="6XLFOW6tzgMGZKUMcbwn-2266" style="edgeStyle=orthogonalEdgeStyle;rounded=0;orthogonalLoop=1;jettySize=auto;html=1;exitX=1;exitY=0.5;exitDx=0;exitDy=0;entryX=0;entryY=0.5;entryDx=0;entryDy=0;" edge="1" parent="1" source="6XLFOW6tzgMGZKUMcbwn-2260" target="6XLFOW6tzgMGZKUMcbwn-2259">
          <mxGeometry relative="1" as="geometry" />
        </mxCell>
        <mxCell id="6XLFOW6tzgMGZKUMcbwn-2260" value="Herramienta 2" style="shape=parallelogram;perimeter=parallelogramPerimeter;whiteSpace=wrap;html=1;fixedSize=1;" vertex="1" parent="1">
          <mxGeometry x="452.5" y="2410" width="187.5" height="40" as="geometry" />
        </mxCell>
        <mxCell id="6XLFOW6tzgMGZKUMcbwn-2261" value="Inicia flujo&lt;br&gt;&quot;Herramienta n&quot;" style="rounded=0;whiteSpace=wrap;html=1;" vertex="1" parent="1">
          <mxGeometry x="696.5" y="2472.5" width="140" height="45" as="geometry" />
        </mxCell>
        <mxCell id="6XLFOW6tzgMGZKUMcbwn-2267" style="edgeStyle=orthogonalEdgeStyle;rounded=0;orthogonalLoop=1;jettySize=auto;html=1;exitX=1;exitY=0.5;exitDx=0;exitDy=0;entryX=0;entryY=0.5;entryDx=0;entryDy=0;" edge="1" parent="1" source="6XLFOW6tzgMGZKUMcbwn-2262" target="6XLFOW6tzgMGZKUMcbwn-2261">
          <mxGeometry relative="1" as="geometry" />
        </mxCell>
        <mxCell id="6XLFOW6tzgMGZKUMcbwn-2262" value="Herramienta n" style="shape=parallelogram;perimeter=parallelogramPerimeter;whiteSpace=wrap;html=1;fixedSize=1;" vertex="1" parent="1">
          <mxGeometry x="452.5" y="2475" width="187.5" height="40" as="geometry" />
        </mxCell>
        <mxCell id="6XLFOW6tzgMGZKUMcbwn-2270" style="edgeStyle=orthogonalEdgeStyle;rounded=0;orthogonalLoop=1;jettySize=auto;html=1;exitX=0.5;exitY=1;exitDx=0;exitDy=0;entryX=0.5;entryY=0;entryDx=0;entryDy=0;" edge="1" parent="1" source="6XLFOW6tzgMGZKUMcbwn-2268" target="6XLFOW6tzgMGZKUMcbwn-2269">
          <mxGeometry relative="1" as="geometry" />
        </mxCell>
        <mxCell id="6XLFOW6tzgMGZKUMcbwn-2268" value="FlujoOpenAI_Dall_E" style="shape=parallelogram;perimeter=parallelogramPerimeter;whiteSpace=wrap;html=1;fixedSize=1;" vertex="1" parent="1">
          <mxGeometry x="1430" y="295" width="150" height="20" as="geometry" />
        </mxCell>
        <mxCell id="6XLFOW6tzgMGZKUMcbwn-2269" value="En pruebas" style="text;html=1;strokeColor=none;fillColor=none;align=center;verticalAlign=middle;whiteSpace=wrap;rounded=0;" vertex="1" parent="1">
          <mxGeometry x="1475" y="345" width="60" height="30" as="geometry" />
        </mxCell>
      </root>
    </mxGraphModel>
  </diagram>
</mxfile>
